<?xml version="1.0" encoding="UTF-8" standalone="no"?>
<!-- Generator: Adobe Illustrator 15.0.0, SVG Export Plug-In . SVG Version: 6.00 Build 0)  -->

<svg
   xmlns:dc="http://purl.org/dc/elements/1.1/"
   xmlns:cc="http://creativecommons.org/ns#"
   xmlns:rdf="http://www.w3.org/1999/02/22-rdf-syntax-ns#"
   xmlns:svg="http://www.w3.org/2000/svg"
   xmlns="http://www.w3.org/2000/svg"
   xmlns:sodipodi="http://sodipodi.sourceforge.net/DTD/sodipodi-0.dtd"
   xmlns:inkscape="http://www.inkscape.org/namespaces/inkscape"
   version="1.1"
   id="Dominican_Republic_1_"
   inkscape:export-ydpi="68"
   inkscape:export-xdpi="68"
   sodipodi:docname="MAPA_RD.svg"
   inkscape:version="0.92.2 (5c3e80d, 2017-08-06)"
   sodipodi:version="0.32"
   inkscape:output_extension="org.inkscape.output.svg.inkscape"
   inkscape:export-filename="E:\data\gis\kartenwerkstatt\poskarten\domrep\Dominican Republic location map.png"
   x="0px"
   y="0px"
   width="1366"
   height="768"
   viewBox="0 0 1366 768"
   enable-background="new 0 0 1400 1139"
   xml:space="preserve"
   style="color-interpolation:auto;color-rendering:auto;image-rendering:auto;shape-rendering:auto;text-rendering:auto"><metadata
     id="metadata7233"><rdf:RDF><cc:Work
         rdf:about=""><dc:format>image/svg+xml</dc:format><dc:type
           rdf:resource="http://purl.org/dc/dcmitype/StillImage" /><dc:title /></cc:Work></rdf:RDF></metadata><defs
     id="defs7231"><clipPath
       clipPathUnits="userSpaceOnUse"
       id="clipPath7241"><g
         id="use7243"
         inkscape:label="Clip"><polygon
           points="729.099,648.481 729.71,644.81 727.389,640.38 721.58,636.191 717.88,625.231 721.8,615.981 724.62,611.68 720,605.39 719.719,595.12 716.389,583.861 715.639,576.68 719.65,573.56 732.099,590.861 747.07,594.64 757.639,600.16 769.139,600.441 775.21,594.481 781.05,588.95 788.429,584.96 796.25,585.93 798.769,588.481 803.05,589.09 813.46,584.8 819.49,585.93 826.09,601.34 834.059,603.08 833.389,610.63 841.26,615.731 842.719,619.21 843.79,629.34 851.73,626.41 860.58,613.09 867.5,606.731 874.219,609.901 881.57,604.02 893.49,599.12 905.469,598.51 913.059,599.13 918.519,604.39 918.809,615.51 920.37,628.95 912.29,636.781 909.69,645.361 911.139,654.59 918.29,661.2 929.41,666.031 937.849,667.22 940.48,670.49 941.41,677.611 937.95,685 938.99,694.84 936.66,695.04 933.21,695.09 929.66,693.49 921.889,687.25 919.969,683.571 916.91,681.76 913.599,680.12 909.79,679.17 906.76,679.22 902.23,680.13 899.74,682.62 899.95,685.151 902.32,690.85 900.38,696.111 897.519,696.16 889.74,694.17 887.16,692.651 882.83,689.05 881.769,685.861 881.87,681.72 878.09,677.401 874.38,677.2 859.32,673.651 851.21,673.55 847.69,672.89 839.099,673.571 827.87,672.071 813.65,673.25 812.17,666.1 810.62,666.45 809.98,657.481 807.45,654.26 797.46,656.361 790.51,654.071 782.969,653.821 781.11,643.59 773.639,643 765.54,656.571 772.599,663.3 774.2,665.16 767.469,670.96 764.16,669.84 758.91,671.88 753.86,669.12 750.84,673.31 746.28,665.55 748.12,662.18 739.54,647.231 733.849,648.91 "
           id="polygon7265"
           style="fill:#e8f2ad" /><polygon
           points="774.2,665.16 772.599,663.3 765.54,656.571 773.639,643 781.11,643.59 782.969,653.821 790.51,654.071 797.46,656.361 807.45,654.26 809.98,657.481 810.62,666.45 810.16,666.56 811.9,669.821 810.929,671.941 803.24,674.56 799.389,677.04 795.01,681.76 785.92,686.731 781.55,687.72 779.46,688.191 774.059,688.37 780.7,672.71 "
           id="polygon7267"
           style="fill:#ffdea9" /></g></clipPath></defs><sodipodi:namedview
     pagecolor="#ffffff"
     bordercolor="#666666"
     borderopacity="1"
     objecttolerance="10"
     gridtolerance="10"
     guidetolerance="10"
     inkscape:pageopacity="0"
     inkscape:pageshadow="2"
     inkscape:window-width="1366"
     inkscape:window-height="705"
     id="namedview7229"
     showgrid="false"
     inkscape:zoom="3.7787532"
     inkscape:cx="910.67238"
     inkscape:cy="305.03957"
     inkscape:window-x="-8"
     inkscape:window-y="-8"
     inkscape:window-maximized="1"
     inkscape:current-layer="g4826" /><g
     id="Dominican_Republic_3_"
     transform="translate(-0.45892969,-414.2318)"><g
       id="g4826"
       transform="matrix(0.52118903,0,0,0.52118903,506.13977,525.44371)"><path
         style="fill:#e8f2ad"
         inkscape:connector-curvature="0"
         id="Altagracia"
         d="m 1206.5059,791.4718 -4.681,3.09 -1.37,-2.26 2,-1.37 0.23,-2.29 -5.81,-0.61 -0.381,3.21 -1.06,3.561 -1.13,-3.03 0.47,-3.63 -0.97,-3.62 -4.851,-8.109 -2.52,-4.21 -2.77,-7.4 -2.841,-4.95 -4.609,-6.53 -2.48,-3.51 -3.01,-5.45 -7.41,-7.51 -2.09,-5.47 -9.24,-5.46 -6.8,-2.47 0.13,-0.36 4.39,-8.32 0.49,-6.63 1.41,-3.02 1.99,-12.091 8.85,-15.04 -0.8,-11.8 -18.76,-20.63 -1.99,-10.68 -7.97,-6.68 0.12,-0.601 -1.2,-0.25 c -0.561,-3.35 0.58,-11.02 0.439,-13.57 l 2.03,-9.72 4.76,1.13 9.521,0.71 2.34,-7.77 2.29,-7.34 7.26,-6.2 3.62,-4.48 8.71,-2.66 c 0.36,-3.77 1.51,-8 -3.22,-17.43 l -3.4,-14.41 -0.91,-7.39 1.881,-15.15 11.13,-0.78 9.39,-9.58 2.79,2.78 3.85,1.2 3.91,1.65 9.11,6.48 3.93,3.42 2.11,0.4 4.29,5.78 2.72,1.66 9.29,8.01 6.42,8.63 7.94,8.02 2.22,2.68 2.55,1.24 2.3,2.6 4.09,3.08 9.811,10.62 4.93,3.33 3.03,-1.46 6.66,8.21 4.069,2.24 2.65,3.1 6.6,1.88 2.19,0.06 2.23,3.61 2.869,2.88 3.08,1.8 2.48,4.28 6.37,3.83 3,5.71 5.529,5.521 3.04,-0.62 3.62,0.14 3.74,2.33 3.26,2.96 2.23,2.03 7.1,7.819 1.26,5.971 -2.97,12.02 -3.25,3.57 -3.41,6.359 -4.659,6.021 -1.221,5.58 -4.34,5.27 -3.939,1.891 -1.211,5.75 -4.149,7.71 -7.37,5.64 -5.23,7.13 -1.869,7.86 0.58,7.42 -0.971,4.479 -3.97,7.971 -1.92,2.29 -3.2,0.279 -3.43,1.811 -10.971,-2.771 -7.939,-2.71 -2.95,0.11 -2.71,-2.51 -8.47,-4.311 -5.42,-3.66 -2.261,-0.3 -5.26,5.69 1.21,3.87 4.28,7.22 -2.28,7.02 -4.89,5.7 -2.271,2.641 -1.569,2.55 -2.34,13.03 -0.92,5.14 1.159,6.91 -0.89,2.62 -4.31,-1.561 -4.28,0.891 -2.46,-0.15 -5.69,1.41 -5.04,0.14 z"><title
           id="title7289">La Altagracia</title></path><path
         inkscape:connector-curvature="0"
         id="Romana"
         d="m 1143.92,693.85 -4.29,0.051 -3.15,-2.491 -2.78,0.121 -3.5,3.16 -2.17,1.119 -12.7,1.421 -9.401,2.479 -9.769,0.12 -5.15,-0.86 -1.77,-0.13 1.93,-14.78 -3.62,-7.409 -7.85,-11.781 4.7,-7.299 10.5,-11.731 24.39,-21.43 9.269,-16.16 0.931,-8.05 8.229,0.241 6.941,1.439 1.2,0.25 -0.12,0.601 7.97,6.679 1.99,10.68 18.76,20.63 0.8,11.8 -8.85,15.04 -1.99,12.091 -1.41,3.019 -0.491,6.63 -4.389,8.32 -0.13,0.361 -1.321,-0.481 -5.549,0.571 -1.54,-2.34 -2.951,-0.311 z"
         style="fill:#fffdc0"
         transform="translate(-12.81407,25.471798)"><title
           id="title1164">La Romana</title></path><path
         style="fill:#ebcef2"
         inkscape:connector-curvature="0"
         id="SanPedroMacoris"
         d="m 1006.8159,709.0118 -3.7,0.14 -3.80997,-1.39 0.38,-2.87 -2.4,-2.75 -1.479,-3.02 -2.561,-2.58 1.48,3.359 1.38,2.511 1.22,2.77 -1.81,3.23 -0.88,3.05 -2.51,1.13 -2.82,0.5 -12.17,-0.37 -5.24,-0.85 -6.65,0.09 -12.27,2.04 -2.92,1.31 -6.41,1.05 -9.53,3.15 -7.939,0.8 -1.04,-9.84 3.46,-7.39 -0.93,-7.12 -2.631,-3.271 -8.439,-1.189 -11.12,-4.83 -7.15,-6.61 -1.449,-9.229 2.6,-8.58 8.08,-7.83 -1.561,-13.44 -0.29,-11.12 7.16,-7.93 4.4,-14.59 1.89,-12.51 6.17,-5.6 6.841,-7.52 4.159,-4.99 4.82,-7.23 11.9,-1.99 -5.4,8.78 -1.46,6.63 1.46,3.48 5.64,2.35 4.46,28.89 -1.939,7.96 6.61,8.57 3.409,11.229 8.45,7.04 2.04,9.8 4.58,10.11 4.38,-0.38 9.87,-6.75 6.62997,-10.67 4.101,-11.5 11.21,-7.801 5.649,-8.09 4.34,-4.75 c 0.58,0.521 1.471,0.761 2.44,0.971 1.53,0.34 3.229,0.63 4.15,1.909 l -0.87,9.4 8.79,4.12 6.75,0.28 5.479,10.26 13.2,0.72 11.29,-0.62 3.91,3.221 -4.46,8.25 4.33,10.399 -10.5,11.73 -4.7,7.3 7.85,11.78 3.62,7.409 -1.93,14.78 -2.11,-0.16 -3.38,-0.97 -5,-2.47 -5.74,-0.851 -4.46,0.141 -7.28,-2.94 -2.81,-2.08 -2.87,-0.8 -3.33,-3.16 -0.529,-4.13 -2.181,-2.93 -2.609,-0.3 -10.75,2.51 -10.36,0.479 z"><title
           id="title7285">San Pedro de Macorís</title></path><path
         style="fill:#ffdea9"
         inkscape:connector-curvature="0"
         id="Seibo"
         d="m 1106.4759,649.8818 -24.39,21.43 -4.33,-10.399 4.46,-8.25 -3.91,-3.221 -11.29,0.62 -13.2,-0.72 -5.479,-10.26 -6.75,-0.28 -8.79,-4.12 0.87,-9.4 c -0.921,-1.279 -2.62,-1.569 -4.15,-1.909 l 0.87,-20.311 0.93,-5.68 3.351,-6.79 0.22,-7.89 -4.98,-10.07 -10.25,-5.6 -9.33,-10.35 -10.31,-3.21 c -2.32997,-1.93 -3.63997,-5.58 -4.89997,-7.51 l -3.449,-8.11 2.64,-9.07 7.27997,-8.94 10.42,3.96 8.33,3.33 12.619,0.09 14.141,4.74 7.81,5.36 4.08,-2.47 -1.08,-7.28 -3.83,-6.23 -10.42,-8.69 1.96,-11.96 6.4,-2.07 2.72,0.89 2.3,1.57 2.521,-1.38 -0.28,-2.19 0.2,-1.92 0.47,-4.5 -4.22,-1.03 -2.32,-1.42 4.88,-1.83 3.23,1.56 1.63,2.16 3.39,6.64 3.67,2.23 3.04,-0.63 2,4.53 2.301,0.62 3.83,3.02 2.04,0.9 3.729,0.38 3.79,-0.47 7.36,0.08 2.1,-0.7 3.2,-1.06 2.08,-1.79 0.569,-2.8 -2.569,-2.24 0.729,-2.8 9.05,0.32 3.32,-4.77 3.46,-0.97 2.561,1.74 3.949,-1.39 2.881,-0.21 5.939,1.71 13.36,8.03 4.02,3.67 2.62,0.43 6.33,-1.55 9.2,6.06 4.399,-0.28 2.021,-0.12 5.09,2.22 4.4,0.71 0.68,0.67 -9.39,9.58 -11.13,0.78 -1.881,15.15 0.91,7.39 3.4,14.41 c 4.729,9.43 3.58,13.66 3.22,17.43 l -8.71,2.66 -3.62,4.48 -7.26,6.2 -2.29,7.34 -2.34,7.77 -9.521,-0.71 -4.76,-1.13 -2.03,9.72 c 0.141,2.551 -1,10.221 -0.439,13.57 l -6.94,-1.439 -8.229,-0.24 -0.931,8.05 z"><title
           id="title7291">El Seibo</title></path><polygon
         transform="translate(-12.81407,25.471798)"
         style="fill:#fdfcea"
         id="polygon5641"
         points="1058.32,472.98 1057.849,473.67 1055.37,473.36 1057.019,470.47 " /><path
         inkscape:connector-curvature="0"
         id="MontePlata"
         d="m 687.05,535.02 10.21,-8.48 0.29,-0.02 13.28,-4.23 11.309,0.59 6.451,0.67 5.16,-6.93 12.99,5.69 9.14,-4.47 6.509,-7.41 17.38,7.52 7.391,-2.64 4.95,-9.96 3.069,-10.79 3.13,-9.12 -1.969,-16.84 h 0.299 l 2.67,-8.21 13.671,-0.99 -1.86,-10.43 8.51,-1.9 8.19,0.46 8.87,1.88 7.119,-3.95 6.801,-2.48 7.8,-1.88 8.87,0.55 3.14,5.19 9.23,18.33 20.67,15.21 0.279,0.21 18.981,6.37 0.07,-0.11 17.67,11.77 8.12,-1.81 14.65,12.55 11.42,5.93 7.61,1.22 5.95,-2.14 6.84,-1.14 1.93,7.17 -4.51,3.87 -6.901,2.35 -3.21,4.49 -10.7,6.74 -2.659,4.18 -11.9,1.99 -4.821,7.23 -4.159,4.99 -6.841,7.52 -6.17,5.6 -1.889,12.51 -4.401,14.59 -7.16,7.93 -5.46,-5.26 -7.59,-0.62 -11.979,0.61 -11.92,4.9 -7.351,5.881 -6.719,-3.17 -6.92,6.359 -8.85,13.32 -7.94,2.93 -1.071,-10.13 -1.459,-3.479 -7.871,-5.101 0.67,-7.55 -7.969,-1.74 -6.6,-15.41 -6.03,-1.13 -10.41,4.29 -4.281,-0.609 -2.519,-2.551 -7.821,-0.97 -7.379,3.99 -5.84,5.531 -6.071,5.96 -11.5,-0.281 -10.569,-5.52 -14.971,-3.779 -12.449,-17.301 -4.011,3.12 -7.58,-8.63 -14.559,-12.88 -12.1,-8.84 z"
         style="fill:#fffdc0"
         transform="translate(-12.81407,25.471798)"><title
           id="title1167">Monte Plata</title></path><path
         style="fill:#e8f2ad"
         inkscape:connector-curvature="0"
         id="HatoMayor"
         d="m 930.75593,469.5118 2.12,0.14 3.409,1.89 1.21,1.92 8.101,-1.3 2.75,2.75 2.81,1.33 2.88,-5.72 -0.39,-3.03 -2.62,0.29 -5.649,0.76 -4.051,0.65 0.891,-2.38 6.479,-2.29 2.7,-0.38 7.04,1.25 5.75,-0.42 2.9,1.9 1.489,3.02 2.28,-0.04 2.47,0.98 -1.3,4.07 1.15,3.11 2.84,3.58 9.16,1.39 3.34,2.83 3.13,0.37 6.22,-2.45 2.19997,0.31 2.771,3.93 5.779,2.11 6.931,6.24 6.479,-1.95 6.32,-1.68 6.93,5.39 4.061,0.79 2.819,1.48 2.79,0.55 0.67,-0.21 -1.96,11.96 10.42,8.69 3.83,6.23 1.08,7.28 -4.08,2.47 -7.81,-5.36 -14.141,-4.74 -12.619,-0.09 -8.33,-3.33 -10.42,-3.96 -7.27997,8.94 -2.64,9.07 3.449,8.11 c 1.261,1.93 2.57,5.58 4.89997,7.51 l 10.31,3.21 9.33,10.35 10.25,5.6 4.98,10.07 -0.22,7.89 -3.351,6.79 -0.93,5.68 -0.87,20.311 c -0.97,-0.21 -1.86,-0.45 -2.44,-0.971 l -4.34,4.75 -5.649,8.09 -11.21,7.801 -4.101,11.5 -6.62997,10.67 -9.87,6.75 -4.38,0.38 -4.58,-10.11 -2.04,-9.8 -8.45,-7.04 -3.409,-11.229 -6.61,-8.57 1.939,-7.96 -4.46,-28.89 -5.64,-2.35 -1.46,-3.48 1.46,-6.63 5.4,-8.78 2.659,-4.18 10.7,-6.74 3.21,-4.49 6.9,-2.35 4.51,-3.87 -1.93,-7.17 -6.84,1.14 -5.95,2.14 -7.61,-1.22 -11.42,-5.93 -14.649,-12.55 -8.12,1.81 -17.67,-11.77 -0.07,0.11 -18.98,-6.37 -0.279,-0.21 0.25,-0.34 6.529,-20.1 3.83,-14.06 1.54,0.08 8.59,-2.58 2.45,-0.3 2.141,1.41 4.71,-1.34 2.409,0.8 3.461,1.56 3.26,-2.42 z"><title
           id="title7293">Hato Mayor</title></path><path
         id="Samana"
         d="m 1026.8969,369.66258 -3.1309,0.45899 -3.0508,5.60937 -2.7207,-0.54882 -2.9394,1.73046 -1.1504,2.79883 -2.6094,1.30078 -5.0684,0.91016 -11.07224,7.75 -0.6387,2.0293 -1.3496,6.34961 -2.1113,0.71093 -1.3106,-2.67968 -2.0293,0.0195 -2.64842,-1.56055 -3.19141,-3.58984 -3.61914,1.07031 -4.1211,-3.74024 -2.8789,0.38086 -3.06055,-0.63086 -2.83008,-2.58007 -2.21875,-1.15039 -2.51172,1.98046 -3.03906,0.72071 -2.16015,-2.83985 -3.11914,-0.78125 -2.81055,0.78125 -2.90039,-1.73046 -4.98047,1.42968 -6.83008,-0.66015 -2.49023,-0.39063 -7.12891,0.20117 -3.15039,-0.88086 -3.35938,1.82032 -2.30078,-1.23047 -2.54882,-0.0488 -3.01172,1.91016 -1.15039,2.45898 -3.3086,-0.19922 -2.89062,4.76953 -2.59961,1.05078 -5.66016,1.35938 -2.41992,0.11914 -8.67969,-0.19922 -2.77929,0.7207 -3.64063,-0.28125 -2.35937,0.88086 -3.85157,2.84961 -2.01953,0.61914 -2.96875,-0.28906 -4.28125,1.03906 -5.41992,1.31055 -4.53906,-0.82031 -4.39063,-1.5586 -2.31055,-0.26171 -0.01,0.0918 -2.28125,8.5 0.93164,12.83985 9.70898,0.68945 13.05079,-0.71094 6.29101,5.38086 2.56836,3.32031 -4.2793,8.98047 -9.61914,2.34961 -6.21093,9.00977 -10.14063,1.29883 4.29102,9.57031 4.6289,7.65039 3.14063,5.18945 9.23047,18.33008 20.66992,15.21094 0.25,-0.33985 6.52929,-20.09961 3.83008,-14.06054 -2.17968,-0.1211 -5.6504,0.93164 -4.32031,-4.07031 -2.27929,-1.39062 -3.45899,-4.50977 4.42774,-2.93945 1.53125,-12.90039 0.41015,-3.41992 1.88086,-3.74024 -0.46094,-2.68945 -1.84961,-4.02149 0.4004,-2.51953 0.5,-3.17969 0.1289,-4.18945 2.07031,-2.40039 3.97071,-0.65039 2.45898,0.38086 3.16016,1.54883 7.73047,1.32031 4.25,1.62109 4.90039,-0.66015 2.54882,0.1289 3.6504,1.1211 3.55078,-0.30078 3.38867,-0.23047 5.69922,2.20117 6.52148,-0.0215 9.76953,2.48046 3.92969,2.47071 6.52149,0.33008 3.17773,2.99023 3.39062,-2.74023 10.43946,-0.75 10.91995,0.3496 1.4102,-2.4707 2.791,-0.11914 4.0898,2.05078 3.97074,-0.39062 2.6602,2.16015 3.7187,-0.39062 3.9102,1.7207 4.1601,0.61914 3.2305,1.30078 6.0195,0.59961 2.6993,-0.46093 2.3398,-2.5586 2.1406,-4.08008 0.1211,-3.38086 4.1797,-10.00976 4.6094,-4.0293 2.0098,-0.87109 7.4609,-6.00977 2.0801,-2.88867 1.8808,-5.01172 0.3789,-3.20898 -0.8007,-2.93946 -4.1582,-0.37109 -4.3008,1.07031 -2.7598,2.90039 -3.7109,0.73047 -3.2403,-1.14062 -2.1992,0.19922 -3.8613,2.66992 -2.1094,0.53125 -6.8789,-1.42969 -1.5703,-3.35156 1.8203,-3.49024 2.9082,-3.58007 2.2324,-4.58985 3.9082,-4.51953 1.8203,-3.40039 -0.3808,-3.20898 -2.8692,0.6289 z"
         style="fill:#ffdea9"
         inkscape:connector-curvature="0"><title
           id="title7298">Samaná</title></path><path
         inkscape:connector-curvature="0"
         id="Duarte"
         d="m 687.07,416.77 -9.24,-1.63 -2.04,0.31 -13.74,-3.98 -12.57,-8.28 -7.23,-13.46 1.41,-10.1 5.97,-9.3 -3.58,-18.45 8.37,-6.57 2.86,-13.32 8.67,-8.17 6.38,-5.9 5.27,-2.53 -8.36,-6.6 1.47,-7.63 12.4,-2.19 8.39,-6.02 0.04,-0.31 7.57,1.05 8.409,2.05 10.841,-2.99 4.14,9.15 0.219,10.75 4.151,7.96 16.21,1.64 -4.64,16.31 -5.171,10.39 8.171,3.55 19.97,8.39 0.149,12.9 12.441,3.2 7.38,-0.42 11.12,8.67 10.3,2.1 10.62,2.68 8.139,0.24 9,5.92 6.62,3.53 9.221,3.34 5.89,-9.28 4.7,0.34 9.71,0.69 13.05,-0.71 6.29,5.38 2.57,3.32 -4.28,8.98 -9.62,2.35 -6.21,9.01 -10.14,1.3 4.29,9.57 4.63,7.65 -8.87,-0.55 -7.8,1.88 -6.801,2.48 -7.119,3.95 -8.87,-1.88 -8.19,-0.46 -8.51,1.9 1.86,10.43 -13.671,0.99 1.401,-4.3 1.639,-11.17 -3.909,-9.88 -11.77,-3.53 -1.64,8.61 -9.681,2.96 -3.799,7.81 -16.3,-8.11 -1.38,-19.78 -10.22,-0.71 -7.69,-2.59 -12.92,-3.94 -2.43,-0.31 -4.181,3.47 -7.189,-2.96 -4.181,0.51 -9.629,5.21 z"
         style="fill:#ffcccc"
         transform="translate(-12.81407,25.471798)"><title
           id="title1176">Duarte</title></path><path
         inkscape:connector-curvature="0"
         id="MariaTrinidadSanchez"
         d="m 792.45,230.86 0.55,2.53 2.429,2.91 3.141,-0.39 2.66,1.98 2.9,0.79 3.86,6.6 2.6,3.16 0.24,3.8 -0.191,3.71 -4,8.93 0.641,2.27 -0.221,1.95 -2.219,4.43 -0.25,4.73 1.16,2.93 3.88,3.98 3.42,1.13 3.11,3.49 -0.68,2.53 -1.91,4.69 -3.04,0.39 -0.8,2.71 3.039,-0.81 1.261,2.09 -0.221,8.95 1.651,6.72 7.88,14.22 1.46,5.88 3.77,5.97 6.26,5.59 1.24,3.19 2.069,1.99 2.371,4.94 6.9,7.31 4.54,2.96 2.3,0.47 3.78,3.06 0.319,0.04 -0.009,0.09 -2.281,8.5 0.931,12.84 -4.7,-0.34 -5.89,9.28 -9.221,-3.34 -6.62,-3.53 -9,-5.92 -8.139,-0.24 -10.62,-2.68 -10.3,-2.1 -11.12,-8.67 -7.38,0.42 -12.441,-3.2 -0.149,-12.9 -19.97,-8.39 -8.171,-3.55 5.171,-10.39 4.64,-16.31 -16.21,-1.64 -4.151,-7.96 -0.219,-10.75 -4.14,-9.15 -10.841,2.99 -6,-7.39 0.321,-14.71 13.549,1.67 24.33,-11.68 4.971,-8.76 -0.221,-19.72 4.25,-4.51 3.451,-1.59 5.16,-1.02 2.36,-0.8 3.04,-1.15 2.48,1.22 4.58,-0.25 5.83,-1.8 3.96,0.1 5.76,2.09 3.24,0.88 z"
         style="fill:#fffdc0"
         transform="translate(-12.81407,25.471798)"><title
           id="title1179">María Trinidad Sánchez</title></path><path
         inkscape:connector-curvature="0"
         id="SanCristobal"
         d="m 739.54,647.231 8.58,14.949 -1.84,3.37 4.56,7.76 3.02,-4.19 5.05,2.76 5.25,-2.04 3.309,1.12 -1.359,6.231 1.65,3.17 -1.741,5.769 -0.199,4.021 -1.45,-2.701 -1.64,2.9 -2.801,7.9 -2.099,3 -4.95,7.09 -2.79,3.851 -3.121,4.529 -3.939,9.86 -1.87,3.241 -6,3.489 -2.391,2.74 -2.67,5.7 -3.899,2.691 -2.87,3.939 -4.12,8.851 -1.901,1.979 -3.38,-0.95 -4.309,0.36 -4.101,-11.58 -4.13,-7.32 -6.499,-8.85 -5.84,-9.19 -3.64,-9.04 -4.91,-1.67 -2.73,-2.54 -6.38,-6.48 2.48,-7.73 9.47,-0.73 0.11,-5.82 -5.46,-5.43 -10.56,-10 -10.06,-9.669 -8.8,-2.151 -0.22,-0.61 -3.6,-10.14 -2.6,-5.97 -0.48,-12.66 -0.99,-13.849 -0.64,-12.491 5.14,-7.74 0.01,-14.889 3.44,-9.101 9.31,3 5.23,0.13 3.48,-5.85 -0.75,-6.5 3.29,-8.58 6.18,-4.85 6.03,-3.99 12.1,8.84 14.559,12.88 7.58,8.63 0.75,7.181 3.33,11.259 0.281,10.27 4.62,6.29 -2.82,4.301 -3.92,9.25 3.7,10.96 5.809,4.189 2.321,4.43 -0.611,3.671 4.75,0.429 z"
         style="fill:#ebcef2"
         transform="translate(-12.81407,25.471798)"><title
           id="title1140">San Cristóbal</title></path><path
         inkscape:connector-curvature="0"
         id="SanchezRamirez"
         d="m 709.24,415.96 7.189,2.96 4.181,-3.47 2.43,0.31 12.92,3.94 7.69,2.59 10.22,0.71 1.38,19.78 16.3,8.11 3.799,-7.81 9.681,-2.96 1.64,-8.61 11.77,3.53 3.909,9.88 -1.639,11.17 -1.401,4.3 -2.67,8.21 h -0.299 l 1.969,16.84 -3.13,9.12 -3.069,10.79 -4.95,9.96 -7.391,2.64 -17.38,-7.52 -6.509,7.41 -9.14,4.47 -12.99,-5.69 -5.16,6.93 -6.451,-0.67 -11.309,-0.59 -13.28,4.23 -10.29,-15.49 -6.8,-4.39 -9.67,-5.91 -6.65,-6.27 -5.15,-7.66 -9.13,-1.98 -3.6,-5.78 -0.61,-9.58 -6.82,-6.28 -0.92,-7.35 0.93,-0.89 3.24,-3.08 9.36,-7.95 0.92,-8.91 3.97,-6.88 15.18,-6.44 4.28,-6.23 2.04,-0.31 9.24,1.63 8.36,4.91 9.629,-5.21 z"
         style="fill:#ffdea9"
         transform="translate(-12.81407,25.471798)"><title
           id="title1173">Sánchez Ramírez</title></path><path
         inkscape:connector-curvature="0"
         id="MonsenorNouel"
         d="m 638.84,454.94 -0.93,0.89 0.92,7.35 6.82,6.28 0.61,9.58 3.6,5.78 9.13,1.98 5.15,7.66 6.65,6.27 9.67,5.91 6.8,4.39 10.29,15.49 -0.29,0.02 -10.21,8.48 -5.65,11.31 -6.03,3.99 -6.18,4.85 -3.29,8.58 0.75,6.5 -3.48,5.85 -5.23,-0.13 -9.31,-3 -11.16,0.91 -8.83,-5.51 -6.52,2.65 -5.93,-0.199 -3.82,-5.021 -8.11,-2.18 -9.25,-4.91 -9.6,-14.13 -4.05,-0.13 -7.32,-4.58 0.76,-8.52 -0.12,-7.71 -8.64,-12.27 7.52,-9.4 3.21,-6.67 4.27,-7.89 4.45,-6.54 5.9,-9.82 -9.23,-16.14 -0.21,-11.31 10,-3.86 8.04,4.8 5.81,-6.71 8.77,-3.68 7.73,-2.73 2.75,6.2 5.9,9.1 7.39,7.69 z"
         style="fill:#e8f2ad"
         transform="translate(-12.81407,25.471798)"><title
           id="title1170">Monseñor Nouel</title></path><path
         style="fill:#ebcef2"
         inkscape:connector-curvature="0"
         id="Vega"
         d="m 430.18593,488.6018 -0.94,0.07 -0.1,-1.27 1.1,-13.7 5.23,-4.3 19.83,-2.77 7.69,-0.9 12.67,-14.87 10.21,-0.12 15.09,-9.89 c 1.35,-1.09 1.45,-12.52 2.06,-13.46 l 4.84,-0.46 5.74,5.82 9.76,2.86 -0.39,-6.13 -2.62,-2.55 0.87,-3.98 -2.53,-5.82 3.21,-4.49 -1.26,-8.27 1.42,-4.18 0.25,-6.99 1.11,-8.03 4.43,-5.55 9.13,-10.99 7.5,0.38 3.32,0.17 9.26,-1.45 10.13,6.68 8.7,-4.42 6.94,3.62 c 1.14,0.38 -1.2,10.52 0.48,13.29 0.66,1.08 6.36,3.08 8.64,1.51 1.45,-1 0.37,-4.83 0.33,-5.71 l 4.45,1.56 4.63,5.96 4.54,2.08 4.72,15.36 1.78,9.13 17.03,-1.59 7.23,13.46 12.57,8.28 13.74,3.98 -4.28,6.23 -15.18,6.44 -3.97,6.88 -0.92,8.91 -9.36,7.95 -3.24,3.08 -0.5,-0.53 -7.39,-7.69 -5.9,-9.1 -2.75,-6.2 -7.73,2.73 -8.77,3.68 -5.81,6.71 -8.04,-4.8 -10,3.86 0.21,11.31 9.23,16.14 -5.9,9.82 -4.45,6.54 -4.27,7.89 -3.21,6.67 -7.52,9.4 8.64,12.27 0.12,7.71 -0.76,8.52 7.32,4.58 -2.33,3.44 3.2,14.69 0.73,4.61 -6.17,7.07 -9.22,4.87 -3.15,4.65 1.77,7.859 -5.72,-0.409 -15.16,-3.37 -9.97,5.409 1.34,-14.789 -3.98,-6.801 -3.29,-8.34 -13.25,-3.53 -10.13,-2.34 -7.33,-14.03 -13.53,-7.21 -3.77,-9.94 -1.25,-12.47 -1.84,-14.53 -3.79,-7.33 1.29,-5.32 -2.95,-7.84 -6.27,-2.69 -6.4,0.91 0.07,-9.07 -9.48,-3.51 z"><title
           id="title7338">La Vega</title></path><path
         style="fill:#ffdea9"
         inkscape:connector-curvature="0"
         id="HermanasMirabal"
         d="m 592.28593,382.7018 -0.67,-0.24 -1.1,-9.87 c 1.17,-4.3 8.24,-6.07 10.34,-10.37 l 3.79,-11.29 -1.8,-7.55 5,-5.69 -0.72,-4.61 4.13,-9.04 -7.74,-11.98 10.13,-13.8 8.57,5.97 5.52,9.46 7.75,1.06 6.49,-2.68 -5.63,-6.7 9.5,-7.43 10.38,6.31 3.93,4.08 5.06,-0.05 11.4,3.37 1.69,6.4 0.42,0.06 -0.04,0.31 -8.39,6.02 -12.4,2.19 -1.47,7.63 8.36,6.6 -5.27,2.53 -6.38,5.9 -8.67,8.17 -2.86,13.32 -8.37,6.57 3.58,18.45 -5.97,9.3 -1.41,10.1 -17.03,1.59 -1.78,-9.13 -4.72,-15.36 -4.54,-2.08 -4.63,-5.96 z"><title
           id="title7340">Hermanas Mirabal</title></path><path
         inkscape:connector-curvature="0"
         id="SanJoseOcoa"
         d="m 545.31,587.861 15.16,3.37 5.72,0.409 -1.77,-7.859 3.15,-4.651 9.22,-4.87 6.17,-7.07 -0.73,-4.61 -3.2,-14.69 2.33,-3.44 4.05,0.13 9.6,14.13 9.25,4.91 8.11,2.18 3.82,5.021 5.93,0.199 6.52,-2.65 8.83,5.51 11.16,-0.91 -3.44,9.101 -0.01,14.889 -5.14,7.74 0.64,12.491 0.99,13.849 0.48,12.66 2.6,5.97 3.6,10.14 -8.03,8.36 -18.92,9.39 -12.87,2.171 -6.81,11.559 -0.13,0.21 -5.33,-3.29 -0.84,-5.83 -2.62,-12.07 -9.24,-10.3 -16.69,-5.229 -11.52,-4.351 -5.66,-9.19 -4.28,-6.129 -5.88,-13.301 0.23,-9.92 -1.79,-9.4 -2.63,-9.22 z"
         style="fill:#fffdc0"
         transform="translate(-12.81407,25.471798)"><title
           id="title1143">San José de Ocoa</title></path><path
         inkscape:connector-curvature="0"
         id="Peravia"
         d="m 677.99,682.24 5.46,5.43 -0.11,5.82 -9.47,0.73 -2.48,7.73 6.38,6.48 2.73,2.54 4.91,1.67 3.64,9.04 5.84,9.19 6.499,8.85 4.13,7.32 4.101,11.58 -4.76,0.741 -2.19,-0.21 -4.33,-1.851 -2.18,0.21 -4.73,3.38 -2.75,1.23 -8.67,-4.299 -5.34,-1.92 -4.54,0.089 -4.05,1.911 -6.81,2.189 -6.13,0.63 -4.57,-1.26 -5.55,-0.22 -4.08,-1.78 -3.46,-0.429 -4.87,0.429 -4.67,2.12 -3.69,0.5 -2.66,1.321 -2.73,2.509 -3.74,1.93 -14.65,5.8 -4.04,1.6 -2.02,0.121 -3.1,-3.481 -2.3,-1.38 h -4.29 l -6.36,1.58 -2.61,-0.2 -2,-2.83 3.35,-4.71 2.06,-1.729 2.44,0.029 -1.18,3.65 2.98,1.8 7.48,-0.84 2.16,-0.889 -0.41,-3.361 -3.15,-1.79 -3.36,0.321 -7.58,-8.361 -6.86,-2.05 -1.9,-1.98 -2.38,-3.68 6.85,-0.94 5.92,1.53 5.25,-2.04 7.01,-0.1 4.76,-2.549 3.5,-9.801 1.56,-15.619 7.97,-9.901 -2.34,-9.9 -4.29,-2.64 0.13,-0.21 6.81,-11.559 12.87,-2.171 18.92,-9.39 8.03,-8.36 0.22,0.61 8.8,2.151 10.06,9.669 z"
         style="fill:#ffdea9"
         transform="translate(-12.81407,25.471798)"><title
           id="title1146">Peravia</title></path><path
         style="fill:#e8f2ad"
         inkscape:connector-curvature="0"
         id="Espaillat"
         d="m 557.06593,367.7318 -9.26,1.45 -3.32,-0.17 0.08,-1.49 5.66,-6.27 c 1.4,-2.67 -0.09,-8.41 -0.1,-11.09 l 2.62,-6.86 -0.75,-7.19 3.24,-12.52 9.71,-2.98 3.06,-6.74 1.52,-3.34 -0.52,-0.24 1.08,-16.43 6.19,-4.67 3.95,10.52 5.75,-0.16 -5.54,-38.33 7.18,1.5 7.82,1.82 4.69,-4.16 5.03,-0.72 3.44,3.72 5.05,0.09 2.43,-3.92 6.34,-0.56 2.13,-2.35 6.64,-1 5.68,-0.7 6.88,0.56 0.11,-0.12 3.99,3.75 3.18,2.22 11.71,3.99 6.89,0.8 3.3,-0.83 6.12,0.73 4.99,3.11 2.45,-0.3 5.08,1.53 5.45,2.74 3.65,-0.15 2.81,0.62 8.31,-0.16 6.341,-1.38 4.3,-1.35 3.38,-1.24 2.58,-2.24 1.78,-5.02 1.489,-1.58 0.221,19.72 -4.971,8.76 -24.33,11.68 -13.55,-1.67 -0.32,14.71 6,7.39 -8.41,-2.05 -7.57,-1.05 -0.42,-0.06 -1.69,-6.4 -11.4,-3.37 -5.06,0.05 -3.93,-4.08 -10.38,-6.31 -9.5,7.43 5.63,6.7 -6.49,2.68 -7.75,-1.06 -5.52,-9.46 -8.57,-5.97 -10.13,13.8 7.74,11.98 -4.13,9.04 0.72,4.61 -5,5.69 1.8,7.55 -3.79,11.29 c -2.1,4.3 -9.17,6.07 -10.34,10.37 l 1.1,9.87 0.67,0.24 c 0.04,0.88 1.12,4.71 -0.33,5.71 -2.28,1.57 -7.98,-0.43 -8.64,-1.51 -1.68,-2.77 0.66,-12.91 -0.48,-13.29 l -6.94,-3.62 -8.7,4.42 z"><title
           id="title7336">Espaillat</title></path><polygon
         transform="translate(-12.81407,25.471798)"
         style="fill:#fdfcea"
         id="polygon5677"
         points="483.63,718.72 484.25,719.8 481.04,723.08 " /><polygon
         transform="translate(-12.81407,25.471798)"
         style="fill:#fdfcea"
         id="polygon5679"
         points="477.17,723.17 471.18,726.35 471.62,723.55 476.31,722.35 " /><path
         inkscape:connector-curvature="0"
         id="Azua"
         d="m 420.27,674.26 4.06,-5.26 -17.23,-10.349 -1.3,-3.92 3.41,-4.29 4.37,2.449 v 5.62 l 7.4,-1.729 -4.98,-9.101 -13.57,-6.56 -9.65,-3.85 -10.32,1.77 -11.57,-6.94 -5.77,-14.89 1.25,-0.49 19.48,-13.48 11.11,-2.1 v -2.35 l 5.93,-3.98 0.98,-4.5 0.77,-11.84 -4.68,-18.98 6.26,-3.97 6.94,1.65 2.58,4.77 7.37,-5.37 7.54,-4.34 2.47,-5.5 -5.65,-7.14 -4.55,-17.44 7.43,-9.46 11.13,-3.34 0.92,-8.22 6.32,-8.95 7.36,-5.37 4.11,-9.79 6.4,-0.91 6.27,2.69 2.95,7.84 -1.29,5.32 3.79,7.33 1.84,14.53 1.25,12.47 3.77,9.94 13.53,7.21 7.33,14.03 10.13,2.34 13.25,3.53 3.29,8.34 3.98,6.801 -1.34,14.789 2.63,9.22 1.79,9.4 -0.23,9.92 5.88,13.301 4.28,6.129 5.66,9.19 11.52,4.351 16.69,5.229 9.24,10.3 2.62,12.07 0.84,5.83 5.33,3.29 4.29,2.64 2.34,9.9 -7.97,9.901 -1.56,15.619 -3.5,9.801 -4.76,2.549 -7.01,0.1 -5.25,2.04 -5.92,-1.53 -6.85,0.94 -1.56,-3.33 0.45,-2.71 3.2,-7.41 2.6,-0.729 -1.15,-10.101 -0.05,-2.19 2.15,-5.53 -2.83,-10.15 -0.34,-3.96 -1.41,-2.93 -6.24,-4.33 -8.88,-1.41 -6.03,-2.319 -4.04,0.089 -2.56,-1.129 -5.05,0.199 -3.34,1.171 -0.11,2.369 -4.16,2.45 -2.27,0.471 0.63,5.559 -0.32,7.77 -5.87,5.11 -1.47,2.061 -7.65,4.309 -2.18,0.05 -11.13,-0.26 -2.99,-1.87 -4.09,-2.269 -1.57,5.019 -2,0.88 -3.32,-1.439 -0.86,2.809 -1.91,-2.58 -3.39,-0.76 -4.38,3.48 -4.03,7.431 -2.42,4.62 -4.81,6.769 -6.08,6.05 -4.96,4 -3.08,1.261 -3.41,0.399 -6.64,1.691 -5.16,-4.521 -0.13,-0.66 0.57,-0.12 7.04,-12.56 -0.07,-7.54 -4.85,-11.769 3.29,-9.04 -7.75,0.409 -7.21,4.68 -4.26,-4.07 -6.46,-4.57 -4.13,-7.15 4.83,-6.03 z"
         style="fill:#e8f2ad"
         transform="translate(-12.81407,25.471798)"><title
           id="title1149">Azua</title></path><path
         style="fill:#fffdc0"
         inkscape:connector-curvature="0"
         id="Santiago"
         d="m 378.45593,338.1018 -4.13,-6.98 7.69,-0.23 12.33,8.03 7.45,-2.23 11.3,5.61 7,-5.54 10.27,4.83 6.44,-3.21 10.3,-0.92 0.7,-7.13 -13.25,-5.69 7.89,-11.17 1.5,-7.3 -9.14,-6.58 1.63,-8.22 11.16,1.24 4.05,-7.6 -4.58,-11.84 -0.88,-9.7 0.54,0.05 13.02,2.72 13.08,3.42 17.14,10.5 7.27,6.53 c 2.47,-2.43 10.02,0.14 11.49,-4.19 l 0.2,-13.96 6.69,-2.11 6.33,6.36 9.12,0.52 5.63,5.43 -0.24,8.73 -3.32,8.96 9.03,5.81 12.44,2.4 13.4,9.23 -3.06,6.74 -9.71,2.98 -3.24,12.52 0.75,7.19 -2.62,6.86 c 0.01,2.68 1.5,8.42 0.1,11.09 l -5.66,6.27 -0.08,1.49 -7.5,-0.38 -9.13,10.99 -4.43,5.55 -1.11,8.03 -0.25,6.99 -1.42,4.18 1.26,8.27 -3.21,4.49 2.53,5.82 -0.87,3.98 2.62,2.55 0.39,6.13 -9.76,-2.86 -5.74,-5.82 -4.84,0.46 c -0.61,0.94 -0.71,12.37 -2.06,13.46 l -15.09,9.89 -10.21,0.12 -12.67,14.87 -7.69,0.9 -19.83,2.77 -5.23,4.3 -1.1,13.7 0.1,1.27 -5.78,0.44 -0.01,-0.06 -8.61,2.14 -10.04,-0.14 -8.62,1.73 -8.43,-8.88 -13.01,-3.84 -12.37,-7.03 0.2,-12.62 -17.37,-14.78 -10.17,-2.5 -10.19,-4.6 0.15,-0.33 2.59,-21.72 -8.41,-10.04 4.9,-12.08 -0.3,-10.53 4.07,-9.43 9.64,-11.67 9.04,-2.66 3.04,4.7 8.74,-2.5 7.06,-4.43 7.7,-5.19 3.08,-9.39 z"><title
           id="title7332">Santiago</title></path><path
         inkscape:connector-curvature="0"
         id="Valverde"
         d="m 459,238 0.88,9.7 4.58,11.84 -4.05,7.6 -11.16,-1.24 -1.63,8.22 9.14,6.58 -1.5,7.3 -7.89,11.17 13.25,5.69 -0.7,7.13 -10.3,0.92 -6.44,3.21 -10.27,-4.83 -7,5.54 -11.3,-5.61 -7.45,2.23 -12.33,-8.03 -7.69,0.23 -0.15,-1 -15.56,-3.99 -13.59,-0.53 -0.41,-8.79 -1.3,-11.31 -0.12,-1.11 3.98,-6.17 -0.81,-9.99 -2.68,-13.84 4.39,-1.6 4.3,-5.83 1.6,-8.06 -5.98,-6.45 -3.8,-8.52 4.93,-12.36 -0.67,-14.72 14.81,9 16.77,4.55 5.58,8.9 23.33,1.84 11.64,9.25 19.27,12.41 v 0.04 z"
         style="fill:#e8f2ad"
         transform="translate(-12.81407,25.471798)"><title
           id="title1182">Valverde</title></path><path
         style="fill:#ffcccc"
         inkscape:connector-curvature="0"
         id="PuertoPlata"
         d="m 360.92593,187.6018 2.66,-2.09 2.7,-1.08 6.11,-0.24 6.92,-5.57 0.88,-2.13 -0.84,-3.19 1.04,-2.3 2.68,-1.67 4.07,-3.81 6.64,-3.54 5.41,-1.23 11.58,0.49 7.91,3.77 7.42,4.39 -2.84,1.92 -0.82,1.85 5.17,-1.19 1.51,2.5 2.89,0.1 -0.56,-2.18 -2.86,-2.3 1.95,-3.68 10.02,3.06 6.3,0.28 3.43,1.01 3.71,-0.69 4.75,-1.02 3.22,-0.5 2.84,1.63 0.69,3.87 2.78,2.63 3.35,1.28 7.39,7.26 1.51,2.33 1.32,2.33 2.26,2.15 -0.79,2.51 2.09,1.93 3.01,-2.09 8.32,-0.44 2.07,1.22 1.5,2.49 2.51,2.14 4.21,2.24 4.24,3.15 -0.36,2.45 3.12,-0.66 5.16,2.49 4.23,2.88 2.92,1.45 2.95,2.89 5.3,1.41 1,2.85 2.57,0.79 2.32,-2.5 4.58,3.44 4.27,1.09 4.16,-0.26 4.55,-2.26 3.45,-0.69 3.74,3.8 5.17,-0.7 3.33,1.03 1.93,-5.36 3.73,-4.13 2.77,-1.49 2.79,-0.74 8.6,0.84 2.02,-0.72 3.15,0.27 3.44,2.04 3.82,3.56 5.85,3.59 1.77,3.17 4.15,-0.5 5.04,5.55 5.11,9.01 2.4,5.19 3.5,2.29 7.8,6 2.25,2.12 -0.11,0.12 -6.88,-0.56 -5.68,0.7 -6.64,1 -2.13,2.35 -6.34,0.56 -2.43,3.92 -5.05,-0.09 -3.44,-3.72 -5.03,0.72 -4.69,4.16 -7.82,-1.82 -7.18,-1.5 5.54,38.33 -5.75,0.16 -3.95,-10.52 -6.19,4.67 -1.08,16.43 0.52,0.24 -1.52,3.34 -13.4,-9.23 -12.44,-2.4 -9.03,-5.81 3.32,-8.96 0.24,-8.73 -5.63,-5.43 -9.12,-0.52 -6.33,-6.36 -6.69,2.11 -0.2,13.96 c -1.47,4.33 -9.02,1.76 -11.49,4.19 l -7.27,-6.53 -17.14,-10.5 -13.08,-3.42 -13.02,-2.72 -0.54,-0.05 -6.33,-0.63 v -0.04 l -19.27,-12.41 -11.64,-9.25 -23.33,-1.84 -5.58,-8.9 -16.77,-4.55 -14.81,-9 -11.35,-4.35 -9.5,-4.37 -1.77,-11.4 6.1,-2.5 1.94,-4.35 1.02,-6.11 8.29,4.94 2.88,-0.24 -0.22,4.74 -2.11,0.55 3.26,1.02 1.63,-2.49 2.06,-2.75 5.95,0.02 -2.76,-1.45 -3.25,-1.02 -2.94,1.34 1.95,-3.59 5.65,1.88 z"><title
           id="title7334">Puerto Plata</title></path><path
         style="fill:#ffcccc"
         inkscape:connector-curvature="0"
         id="SantiagoRodriguez"
         d="m 297.50593,434.4918 -0.11,0.21 -20.27,-10.43 -0.17,0.25 -14.1,-9.56 -25.79,-5.05 -5.12,-10.45 -2.12,-4.32 -2.22,-8.89 0.22,-0.3 10.06,-6.98 0.13,-8.84 2.51,-13.39 3.67,-7.55 4.92,-10.16 -0.37,-10.45 1.82,-13.65 10.74,-4.73 3.27,-9.55 8.74,2.07 13.24,1.39 10.92,-3.88 9.15,-3.7 7.29,7.7 c 4.08,-0.45 8.17,2.95 12.25,1.58 l 9.19,-5.2 7.8,4.91 0.16,-0.02 1.3,11.31 0.41,8.79 13.59,0.53 15.56,3.99 0.15,1 4.13,6.98 -2.31,5.16 -3.08,9.39 -7.7,5.19 -7.06,4.43 -8.74,2.5 -3.04,-4.7 -9.04,2.66 -9.64,11.67 -4.07,9.43 0.3,10.53 -4.9,12.08 8.41,10.04 -2.59,21.72 -0.15,0.33 -0.26,-0.12 -9.98,0.83 -2.72,-0.75 z"><title
           id="title7326">Santiago Rodríguez</title></path><path
         inkscape:connector-curvature="0"
         id="Bahoruco"
         d="m 281.89,619.52 7.99,2.02 7.45,2.67 6.06,-10.04 7.06,-2.88 9.5,3.97 7.7,1.09 6.4,-1.569 7.38,0.5 5.88,-2.101 17.58,3.44 0.23,0.59 5.77,14.89 11.57,6.94 10.32,-1.77 9.65,3.85 13.57,6.56 4.98,9.101 -7.4,1.729 v -5.62 l -4.37,-2.449 -3.41,4.29 1.3,3.92 0.26,0.779 -7.4,2.34 2.44,5.011 -8.07,4.389 -2.23,5.611 -7.2,2.649 -5.25,4.801 -9.43,2.759 3.6,5.411 -13.81,3.059 -9.14,14.09 -0.68,4.29 2.68,5.12 7.14,5.521 -10.34,3.429 -0.43,0.48 -4.31,-3.83 -9.48,-8.43 -5.29,-4.92 -3.66,-7.51 -3,-3.7 -3.3,-6.16 -9.33,-6.559 -12.45,6.41 -8.5,8.799 -8.28,-1.64 -12.41,-8.8 -6.62,-4.39 -19.17,-7.089 -20.77,-9.38 -20.5,-12.151 -4.73,-4.96 -1.05,-2.759 0.87,-3.531 6.1,-10.46 2.41,-11.139 5.46,-9.29 3.85,-2.771 10.53,-8.809 12.85,2.109 9.31,7.431 14.74,0.909 11.91,4.83 z"
         style="fill:#fffdc0"
         transform="translate(-12.81407,25.471798)"><title
           id="title1155">Bahoruco</title></path><path
         inkscape:connector-curvature="0"
         id="SanJuan"
         d="m 237.53,476.35 2.28,-7.38 2.03,-9.22 4.79,-9.11 7.52,-4.75 5.28,-14.33 11.44,0.03 5.43,4.4 12.98,-0.86 7.08,2.32 5.21,-3.81 1.54,-7.18 -1.59,-9.87 10.22,0.17 12.87,-3.41 0.09,-0.33 2.72,0.75 9.98,-0.83 0.26,0.12 10.19,4.6 10.17,2.5 17.37,14.78 -0.2,12.62 12.37,7.03 13.01,3.84 8.43,8.88 8.62,-1.73 10.04,0.14 8.61,-2.14 0.01,0.06 5.78,-0.44 0.94,-0.07 7.78,1.31 9.48,3.51 -0.07,9.07 -4.11,9.79 -7.36,5.37 -6.32,8.95 -0.92,8.22 -11.13,3.34 -7.43,9.46 4.55,17.44 5.65,7.14 -2.47,5.5 -7.54,4.34 -7.37,5.37 -2.58,-4.77 -6.94,-1.65 -6.26,3.97 4.68,18.98 -0.77,11.84 -0.98,4.5 -5.93,3.98 v 2.35 l -11.11,2.1 -19.48,13.48 -1.25,0.49 -0.23,-0.59 -17.58,-3.44 -5.88,2.101 -7.38,-0.5 -6.4,1.569 -7.7,-1.09 -9.5,-3.97 -7.06,2.88 -6.06,10.04 -7.45,-2.67 -7.99,-2.02 -7.47,1.08 -11.91,-4.83 -14.74,-0.909 -9.31,-7.431 -12.85,-2.109 -0.42,-7.361 -6.51,-10.04 -1.44,-8.04 3.25,-11.15 -0.41,-6.84 -1.89,-3.06 -12.58,-8.79 -2.75,-4.94 1.39,-13.12 -1.56,-8.48 -4.58,-9.84 6.5,-9.87 -3.3,-11.6 6.97,-9.09 8.96,-8.35 9.4,1.91 6.53,2.12 z"
         style="fill:#ffdea9"
         transform="translate(-12.81407,25.471798)"><title
           id="title1158">San Juan</title></path><path
         inkscape:connector-curvature="0"
         id="Barahona"
         d="m 308.92,743.1 12.11,4.52 9.92,-2.139 7.93,-10.231 3.47,-5.639 2.19,-4.621 0.39,-0.43 4.31,3.83 0.43,-0.48 10.34,-3.429 -7.14,-5.521 -2.68,-5.12 0.68,-4.29 9.14,-14.09 13.81,-3.059 -3.6,-5.411 9.43,-2.759 5.25,-4.801 7.2,-2.649 2.23,-5.611 8.07,-4.389 -2.44,-5.011 7.4,-2.34 -0.26,-0.779 17.23,10.349 -4.06,5.26 -8.71,14.87 -4.83,6.03 4.13,7.15 6.46,4.57 4.26,4.07 7.21,-4.68 7.75,-0.409 -3.29,9.04 4.85,11.769 0.07,7.54 -7.04,12.56 -0.57,0.12 -0.73,-3.62 -2.19,-3.659 -2.72,-2.731 -1.79,-2.82 -4.07,-1.079 -4.77,-2.421 -2.88,-0.6 -4.52,-2.09 -5.29,0.39 -3.32,1.771 -11.68,11.25 -1.92,4.019 -0.6,2.8 0.68,3.78 1.59,2.91 2.22,4.5 3.26,2.71 -1.54,5.781 0.64,1.919 4.35,3.94 3.06,6.85 3.83,5.22 -0.41,3.64 -4.7,14.04 -1.75,4.091 -4.34,7.96 -2.81,5.299 -3.5,1.35 -2.28,2.76 -0.59,3.64 -7.87,7.96 -0.54,4.991 -3.05,2.269 -1.68,3.33 -3.07,1.77 -2.61,3.19 -2.23,4.861 -7.83,12.349 -1.94,2.63 -3.71,3.25 -3.71,5.92 -4.61,3.41 -4.34,4.33 -2.02,-0.21 -1.45,2.66 -4.16,4.661 -1.96,5.37 -2.16,-2.481 -0.94,0.49 -0.1,-0.2 0.11,-8.32 -2.01,-7.5 -1.73,-7.319 -3.81,-6.571 -7.35,-4.2 -3.78,11.17 -15.18,-4.95 -6.04,-12.029 -9.29,-1.13 -7.85,-8.141 6.34,-11.17 7.57,-0.26 7.61,-12.54 -8.68,-17.34 7.38,-7.53 -14.22,-4.61 -3.42,-3.19 0.01,-0.009 4.86,-9.601 -3.3,-7.81 6.34,-2.11 8.35,3.07 1.85,-13.02 3.47,-9.899 -3.68,-7.391 0.37,-6.489 6.35,-5.701 z"
         style="fill:#ffdea9"
         transform="translate(-12.81407,25.471798)"><title
           id="title1152">Barahona</title></path><path
         inkscape:connector-curvature="0"
         id="Dajabon"
         d="m 198.7,393.21 -2.15,-1.04 -4.48,0.21 -3.75,-0.91 -2.67,-1.61 -6.88,-0.49 -3.18,-1.6 -1.92,-1.97 -1.2,-3.68 -1.93,-2.22 -2.06,-0.96 -0.67,-2.77 -1.07,1.19 -0.78,-0.71 -2.13,1.49 -1.37,-2.41 -3.24,-1.08 -2.1,-2.84 -1.52,-4.66 -3.31,-6.15 -4.71,-4.68 -3.05,-1.92 8.89,-1.77 4.06,-0.81 1.99,-3.28 4.3,-3.35 6.62,-2.94 3.45,-0.56 4.43,1.03 -1.15,-8.68 -0.31,-2.34 2.42,-4.45 -0.09,-3.22 4.6,-9.34 -0.33,-3.45 -4.38,-7.94 -1.93,-2.1 0.52,-5.42 2.25,-4.45 -0.41,-2.44 -2.89,-0.09 -1.42,-2.32 0.05,-3.89 -0.85,-0.55 -0.11,-0.6 -1.67,-0.92 -1.39,-5.07 -1.18,-2.67 -2.91,-1.9 -1.77,-3.61 -3.88,-5.18 -0.85,-5.28 0.28,-6.92 -0.8,-3.66 0.94,-2.65 0.11,-0.29 0.04,0.02 17.2,5.34 7.59,-1.53 13.49,6.62 13.98,-2.44 9.32,-2.44 9.59,-1.96 5.38,3.23 5.69,-0.12 1.34,11.22 12.96,6.78 -0.01,0.02 10.86,5.43 5.74,0.98 3.1,0.74 -3.27,9.55 -10.74,4.73 -1.82,13.65 0.37,10.45 -4.92,10.16 -3.67,7.55 -2.51,13.39 -0.13,8.84 -10.06,6.98 -0.22,0.3 2.22,8.89 2.12,4.32 -0.08,0.04 -2.3,1.6 -5.69,3.05 -16.99,-5.86 -5.01,-0.64 -3.91,7.54 -4.96,2.65 -4.28,5.92 -1.42,6.43 z"
         style="fill:#e8f2ad"
         transform="translate(-12.81407,25.471798)"><title
           id="title1185">Dajabón</title></path><polygon
         transform="translate(-12.81407,25.471798)"
         style="fill:#fdfcea"
         id="polygon5703"
         points="199.62,424.2 198.03,423.36 200.06,423.48 " /><polygon
         transform="translate(-12.81407,25.471798)"
         style="fill:#fdfcea"
         id="polygon5705"
         points="199.05,405.69 199.67,405.51 199.71,406.1 " /><polygon
         transform="translate(-12.81407,25.471798)"
         style="fill:#fdfcea"
         id="polygon5707"
         points="200.12,394.72 196.55,392.17 198.7,393.21 " /><polygon
         transform="translate(-12.81407,25.471798)"
         style="fill:#fdfcea"
         id="polygon5709"
         points="197.67,428.61 197.86,426.58 198.53,425.98 " /><polygon
         transform="translate(-12.81407,25.471798)"
         style="fill:#fdfcea"
         id="polygon5711"
         points="181.07,440.49 185.17,438.41 181.77,440.79 " /><polygon
         transform="translate(-12.81407,25.471798)"
         style="fill:#fdfcea"
         id="polygon5713"
         points="174.91,439.93 175.31,442.91 175.21,443.44 172.97,440.78 " /><polygon
         transform="translate(-12.81407,25.471798)"
         style="fill:#fdfcea"
         id="polygon5715"
         points="174.35,282.04 172.7,280.98 172.57,280.52 174.24,281.44 " /><polygon
         transform="translate(-12.81407,25.471798)"
         style="fill:#fdfcea"
         id="polygon5717"
         points="172.85,451.65 172.93,451 173.36,451.49 " /><path
         style="fill:#fffdc0"
         inkscape:connector-curvature="0"
         id="Pedernales"
         d="m 147.19593,817.2618 -2.76,0.25 -1.34,-2.5 -2.3,-1.11 -0.76,-2.85 -0.77,-0.54 -0.27,-0.61 -2.99,-1.689 -1.77,-2.561 4.09,-8.83 1,-6.699 3.47,-3.431 0.39,-3.109 10.55,-19.141 1.19,-2.16 2.5,-4.529 19.89,18.75 20.89,8.029 c 3.02,4.4 -0.33,5.141 2.61,8.261 4.42,4.689 8.49,2.02 11.42,4.319 l 8.77,-2.64 10.69,4.76 9.72,11.69 8.3,3.35 4.93,4.61 3.42,3.189 14.22,4.61 -7.38,7.53 8.68,17.34 -7.61,12.54 -7.57,0.26 -6.34,11.17 7.85,8.141 9.29,1.13 6.04,12.029 15.18,4.95 3.78,-11.17 7.35,4.2 3.81,6.57 1.73,7.319 2.01,7.5 -0.11,8.32 0.1,0.2 -1.3,0.67 -0.34,6.16 -1.02,2.56 -4.52,0.71 -2.15,1.24 -2.12,2.25 -10.54,20.77 0.15,2.631 -1.1,2.55 -1.32,7.12 -5.24,11.27 0.39,2.271 -0.6,2.46 -2.57,4.21 -3.12,2.779 -2.21,5.12 -2.53,3.3 -1.43,5.58 -1.6,2.66 -2.84,0.41 -2.43,3.35 -3.92,-5.63 -3.08,-2.449 -2.33,-5.421 -4.54,-3.5 -4.29,-6.229 -1.95,-4.49 -1.32,-5.53 -3.81,-7.319 -2.86,-3.3 -1.26,-3.341 -2.67,-2.55 -5.13,-3.31 -8.36,-4.42 -11.28,-1.88 -15.55,1.949 -6.06,2.36 -3.84,0.79 -5.43,-2.3 -2.24,-1.37 -2.88,-1.771 4.64,-1.819 3.85,-3.4 3.35,-9.12 5.62,-0.33 1.52,-2.489 1.54,-5.19 -0.26,-3.11 -1.62,-3.93 -2.94,-3.04 -4.94,-11.59 -4.78,-2.65 -1.83,-2.31 3.95,-2.811 2.64,-4.63 0.48,-3.89 -3.03,-6.16 -0.9,-5.3 -1.85,-2.9 -4.39,-3.59 -5.36,-5.41 -5.87,-2.449 -4.54,-5.95 -2.66,-1.95 -4.51,-1.811 -2.7,-0.35 1.38,-1.979 0.52,-2.21 2.68,-3.28 0.64,-3.99 1.91,-3.85 0.75,-3.061 -0.88,-4.359 0.27,-2.46 -2.63,-0.601 -0.74,-2.34 -0.36,-3.87 0.95,-4.84 z"><title
           id="title7314">Pedernales</title></path><polygon
         transform="translate(-12.81407,25.471798)"
         style="fill:#fdfcea"
         id="polygon5721"
         points="171.34,448.52 170.98,448.18 171.55,447.89 " /><polygon
         transform="translate(-12.81407,25.471798)"
         style="fill:#fdfcea"
         id="polygon5723"
         points="167.09,270.88 170,272.78 167.51,271.75 " /><polygon
         transform="translate(-12.81407,25.471798)"
         style="fill:#fdfcea"
         id="polygon5725"
         points="169.65,454.89 168.19,457.12 167.02,457.67 " /><polygon
         transform="translate(-12.81407,25.471798)"
         style="fill:#fdfcea"
         id="polygon5727"
         points="169.07,541.14 167.35,533.45 167.29,532.73 " /><polygon
         transform="translate(-12.81407,25.471798)"
         style="fill:#fdfcea"
         id="polygon5729"
         points="166.74,377.36 164.69,379.64 163.83,378.14 165.96,376.65 " /><polygon
         transform="translate(-12.81407,25.471798)"
         style="fill:#fdfcea"
         id="polygon5731"
         points="163.06,572.62 161.79,576.06 160.34,577.41 " /><polygon
         transform="translate(-12.81407,25.471798)"
         style="fill:#fdfcea"
         id="polygon5733"
         points="157.81,229.9 157.51,229.15 162.59,233.56 " /><polygon
         transform="translate(-12.81407,25.471798)"
         style="fill:#fdfcea"
         id="polygon5735"
         points="159.22,374.65 162.46,375.73 159.65,375.22 " /><polygon
         transform="translate(-12.81407,25.471798)"
         style="fill:#fdfcea"
         id="polygon5737"
         points="161.99,460.87 161.31,462.13 159.36,460.77 159.83,460.57 " /><polygon
         transform="translate(-12.81407,25.471798)"
         style="fill:#fdfcea"
         id="polygon5739"
         points="161.17,243.14 161.12,243.29 161.01,243.58 161.36,241.02 " /><polygon
         transform="translate(-12.81407,25.471798)"
         style="fill:#fdfcea"
         id="polygon5741"
         points="159.63,793.151 157.25,792.04 160.01,791.79 160.57,796.58 " /><polygon
         transform="translate(-12.81407,25.471798)"
         style="fill:#fdfcea"
         id="polygon5743"
         points="154.63,219.77 155.02,219.62 155.52,221.35 156.05,224.96 156.25,225.96 154.73,223.15 " /><polygon
         transform="translate(-12.81407,25.471798)"
         style="fill:#fdfcea"
         id="polygon5745"
         points="152.08,785.04 148.82,782.74 151.81,784.43 " /><path
         style="fill:#ffdea9"
         inkscape:connector-curvature="0"
         id="MonteCristi"
         d="m 144.16593,244.3318 5.22,-1.58 1.86,2.56 2.94,2.03 3.16,0.5 -2.07,-4.16 -2.65,-0.35 0.56,-4.07 -0.31,-2.1 -1.3,-3.68 1.68,-3.68 -2.87,0.68 -2.1,-2.31 -0.15,-2.1 -0.69,-3.28 -2.49,-0.94 0.68,-5.84 -2.16,-1.38 -3.82,3.07 -2.66,5.14 -2.24,-4.79 0.92,-2.69 6.02,-6.33 2.5,-1.51 1.98,-2.17 1.51,-3.75 2.89,0.08 4.08,0.06 3.36,-1.36 4.5,-3.25 1.61,-3.09 2.49,0.95 2.21,-0.15 7.05,-6.11 2.23,-2.17 1.22,-5.1 -1.12,-3.43 -1.69,-2.82 0.53,-2.13 2.78,-0.75 3.72,2.18 3.72,5.04 3.68,-2.04 0.8,-1.96 -0.32,-2.02 3.95,-1.88 7.07,-2.64 2.72,0.01 3.57,0.53 3.85,0.19 3.27,-1.69 2.8,-0.08 4.52,0.39 6.34,1.85 5.58,-1.24 3.17,0.67 13.6,6.14 2.45,2.38 4.37,1.32 7.92,3.51 6.48,1.59 4.63,3.86 5.88,0.69 2.59,1.37 6.99,0.66 2.06,0.88 3.97,-1.2 5.04,0.97 2.89,-0.08 2.07,4.51 3.09,0.51 2.05,0.96 6.02,-0.4 5.47,-0.58 1.77,11.4 9.5,4.37 11.35,4.35 0.67,14.72 -4.93,12.36 3.8,8.52 5.98,6.45 -1.6,8.06 -4.3,5.83 -4.39,1.6 2.68,13.84 0.81,9.99 -3.98,6.17 0.12,1.11 -0.16,0.02 -7.8,-4.91 -9.19,5.2 c -4.08,1.37 -8.17,-2.03 -12.25,-1.58 l -7.29,-7.7 -9.15,3.7 -10.92,3.88 -13.24,-1.39 -8.74,-2.07 -3.1,-0.74 -5.74,-0.98 -10.86,-5.43 0.01,-0.02 -12.96,-6.78 -1.34,-11.22 -5.69,0.12 -5.38,-3.23 -9.59,1.96 -9.32,2.44 -13.98,2.44 -13.49,-6.62 -7.59,1.53 -17.2,-5.34 -0.04,-0.02 0.05,-0.15 0.19,-2.12 1.54,-2.57 0.36,-2.04 -0.67,-2.85 -5.08,-4.41 -1.26,-3.19 -0.2,-1 -0.53,-3.61 -0.5,-1.73 z"><title
           id="title7328">Monte Cristi</title></path><polygon
         transform="translate(-12.81407,25.471798)"
         style="fill:#fdfcea"
         id="polygon5749"
         points="150.3,467.57 147.27,470.63 149.63,467.61 " /><polygon
         transform="translate(-12.81407,25.471798)"
         style="fill:#fdfcea"
         id="polygon5751"
         points="145.69,587.731 145.68,587.731 148.51,583.43 " /><polygon
         transform="translate(-12.81407,25.471798)"
         style="fill:#fdfcea"
         id="polygon5753"
         points="147.42,473.38 147.27,470.63 148.26,472.89 " /><polygon
         transform="translate(-12.81407,25.471798)"
         style="fill:#fdfcea"
         id="polygon5755"
         points="146.16,494.53 142.64,494.57 146.01,494.31 148.26,496.42 " /><polygon
         transform="translate(-12.81407,25.471798)"
         style="fill:#fdfcea"
         id="polygon5757"
         points="143.64,476.82 144.43,474.77 146.1,474.16 " /><polygon
         transform="translate(-12.81407,25.471798)"
         style="fill:#fdfcea"
         id="polygon5759"
         points="143.64,476.82 144.39,479.33 143.84,479.41 " /><polygon
         transform="translate(-12.81407,25.471798)"
         style="fill:#fdfcea"
         id="polygon5761"
         points="139.92,476.8 137.93,478.25 139.65,476.26 " /><polygon
         transform="translate(-12.81407,25.471798)"
         style="fill:#fdfcea"
         id="polygon5763"
         points="137.3,610.47 136.13,610.63 138.69,606.941 " /><polygon
         transform="translate(-12.81407,25.471798)"
         style="fill:#fdfcea"
         id="polygon5765"
         points="120.24,485.48 125.67,478.01 120.91,485.83 " /><polygon
         transform="translate(-12.81407,25.471798)"
         style="fill:#fdfcea"
         id="polygon5767"
         points="119.66,492.2 120.76,492.38 119.12,496.77 118.62,496.79 " /><polygon
         transform="translate(-12.81407,25.471798)"
         style="fill:#fdfcea"
         id="polygon5769"
         points="116.04,487.24 116.55,484.19 117.72,484.98 " /><path
         inkscape:connector-curvature="0"
         id="EliasPina"
         d="m 180.25,440.91 0.82,-0.42 0.7,0.3 3.4,-2.38 5.33,0.11 2.58,-1.43 2.64,-2.69 1.1,-3.07 0.85,-2.72 0.86,-2.63 v -0.01 l 1.65,-1.48 -0.56,-0.29 0.44,-0.72 -2.03,-0.12 -1.05,-4.02 3.28,-3.8 1,-3.49 1.37,-2.57 -1.34,-2.41 -1.58,-0.97 -0.04,-0.59 3.16,-0.94 2.5,-1.67 -1.51,-2.41 -0.32,-2.18 -3.38,-3.59 1.42,-6.43 4.28,-5.92 4.96,-2.65 3.91,-7.54 5.01,0.64 16.99,5.86 5.69,-3.05 2.3,-1.6 0.08,-0.04 5.12,10.45 25.79,5.05 14.1,9.56 0.17,-0.25 20.27,10.43 0.11,-0.21 14.38,4 -0.09,0.33 -12.87,3.41 -10.22,-0.17 1.59,9.87 -1.54,7.18 -5.21,3.81 -7.08,-2.32 -12.98,0.86 -5.43,-4.4 -11.44,-0.03 -5.28,14.33 -7.52,4.75 -4.79,9.11 -2.03,9.22 -2.28,7.38 -4.36,2.43 -6.53,-2.12 -9.4,-1.91 -8.96,8.35 -6.97,9.09 3.3,11.6 -6.5,9.87 4.58,9.84 1.56,8.48 -1.39,13.12 2.75,4.94 12.58,8.79 1.89,3.06 0.41,6.84 -3.25,11.15 1.44,8.04 6.51,10.04 0.42,7.361 -17.79,-7.731 -15.21,-2.26 -14.96,4.401 -9.84,-4.881 -22.12,-7.119 2.82,-4.301 3.12,-1.25 6.27,-2.51 2.44,-2.26 1.45,-1.35 1.27,-3.44 1.06,-2.87 1.37,-5.88 1.98,-8.45 1.19,-10.67 0.41,-3.61 -1.78,-8.41 -0.3,-3.52 0.81,-6.51 -4,-0.14 -2.64,-5.17 -3.34,-3.16 -5.85,-3.58 -2.03,-7.78 -1.68,-6.45 -2.25,-2.11 -3.37,0.26 -3.27,-1.84 -3.05,-0.17 -6.94,-3.34 -3.14,-0.17 -0.01,1.25 -0.03,2.89 -2.13,-0.27 -3.07,-1.18 -0.24,0.64 -1.1,-0.18 -1.04,4.59 -4.74,0.14 -3.09,1.35 0.52,-3.26 2.71,-1.81 -0.01,-1.12 0.65,-0.34 -0.66,-2.17 2.04,-2.34 1.68,-2.26 1.93,1.31 0.59,-0.81 0.67,0.35 4.76,-7.82 2.93,-0.76 3.3,2.86 2.62,-0.07 3.41,-1.79 1.99,-1.45 1.44,2.95 2.55,0.52 -0.07,-0.86 0.55,-0.08 -0.75,-2.51 2.46,-2.66 0.01,-0.01 1.33,-0.48 -0.02,-0.29 0.84,-0.49 -0.99,-2.26 3.03,-3.06 2.63,-0.14 0.42,-2.71 4.31,-3.25 1.7,-0.7 1.95,1.36 0.68,-1.26 0.39,0.05 3.82,-2.39 0.82,-0.86 1.17,-0.55 1.46,-2.23 0.19,-2.29 2.88,0.17 0.13,-1.12 0.51,-0.16 -0.43,-0.49 0.1,-0.85 -1.69,-1.63 0.21,-0.63 3.1,-1.59 1.03,-2.3 -0.47,-0.56 0.1,-0.53 -0.4,-2.98 2.4,-1.05 z"
         style="fill:#ebcef2;stroke:none"
         transform="translate(-12.81407,25.471798)"><title
           id="title1161">Elías Pina</title></path><polygon
         transform="translate(-12.81407,25.471798)"
         style="fill:#fdfcea"
         id="polygon5773"
         points="114,489.58 114.66,491.75 114.01,492.09 " /><polygon
         transform="translate(-12.81407,25.471798)"
         style="fill:#fdfcea"
         id="polygon5775"
         points="111.31,495.02 110.79,498.28 111.05,495.2 " /><polygon
         transform="translate(-12.81407,25.471798)"
         style="fill:#fdfcea"
         id="polygon5777"
         points="95.11,608.88 98.32,609.35 95.57,609.18 " /><polygon
         transform="translate(-12.81407,25.471798)"
         style="fill:#fdfcea"
         id="polygon5779"
         points="85.69,604.071 81.95,604.34 84.62,603.81 " /><path
         style="fill:#e8f2ad"
         inkscape:connector-curvature="0"
         id="Independencia"
         d="m 115.06593,638.2118 4.94,-1.641 2.52,0.681 0.79,-1.15 1.17,-0.16 1.39,-3.529 -0.61,-3.98 3.37,-13.33 3.71,-1.11 0.52,-0.779 v -0.01 h 0.01 l 22.12,7.119 9.84,4.881 14.96,-4.4 15.21,2.26 17.79,7.73 -10.53,8.81 -3.85,2.771 -5.46,9.29 -2.41,11.14 -6.1,10.46 -0.87,3.53 1.05,2.76 4.73,4.96 20.5,12.15 20.77,9.38 19.17,7.09 6.62,4.39 12.41,8.8 8.28,1.641 8.5,-8.8 12.45,-6.41 9.33,6.56 3.3,6.16 3,3.7 3.66,7.51 5.29,4.92 9.48,8.43 -0.39,0.431 -2.19,4.62 -3.47,5.64 -7.93,10.23 -9.92,2.14 -12.11,-4.521 -16.84,-8.649 -6.35,5.7 -0.37,6.489 3.68,7.391 -3.47,9.899 -1.85,13.021 -8.35,-3.07 -6.34,2.11 3.3,7.81 -4.86,9.601 -0.01,0.01 -4.93,-4.61 -8.3,-3.35 -9.72,-11.69 -10.69,-4.766 -8.77,2.64 c -2.93,-2.3 -7,0.37 -11.42,-4.319 -2.94,-3.12 0.41,-3.86 -2.61,-8.261 l -20.89,-8.029 -19.89,-18.75 4.44,-8.05 2.82,-5.11 -21.8,-9.23 -10.93,-4.63 -4.62,-3.2 -2.96,-3.97 -6.24,-1.97 -4.54,-8.93 -6.53,-3.36 -4.1,-2.11 -10.87,-5.59 -1.47,-9.729 6.37,-1.851 3.02,-2.17 -0.1,-3.5 -3.96,-4.29 -22.05,-23.92 -2.04,-1.439 -0.41,-5.48 -1.31,-1.96 -3.25,-1.28 -2.38,-3.55 -2.28,-1.18 -4.22,0.88 -2.05,-1.94 1.91,-2.81 4.73,-0.641 2.69,-1.819 3.84,-5.11 3.74,-0.27 3.27,0.81 6.15,4 0.46,0.3 2.75,0.17 4.41,-3.119 3.25,0.149 6.9,5.79 2.53,0.93 0.57,-0.449 3.33,-2.66 z"><title
           id="title7316">Independencia</title></path><path
         id="SantoDomingo"
         transform="matrix(0.99327196,0,0,0.99327196,-7.3631811,29.956362)"
         style="fill:#ffdea9"
         d="m 781.55,687.72 -2.09,0.471 -5.401,0.179 6.641,-15.66 -6.5,-7.55 -1.601,-1.86 -7.059,-6.729 8.099,-13.571 7.471,0.59 1.859,10.231 7.541,0.25 6.95,2.29 9.99,-2.101 2.53,3.221 0.64,8.969 -0.46,0.11 1.74,3.261 -0.971,2.12 -7.689,2.619 -3.851,2.48 -4.379,4.72 -9.09,4.971 z m -62.51284,-114.78995 -4.03889,3.14028 0.75508,7.23029 3.35263,11.33603 0.28316,10.33909 4.65043,6.33167 -2.83745,4.33187 -3.94647,9.31266 3.72426,11.03321 5.84795,4.21784 2.33799,4.45968 -0.61547,3.69676 4.78217,0.43062 5.72996,-1.68909 8.63624,15.04852 -1.85231,3.39392 4.59144,7.81232 3.03998,-4.21783 5.08499,2.77847 5.28556,-2.05485 3.33101,1.1287 -1.36858,6.27266 1.66157,3.1914 -1.75202,5.80861 -0.20057,4.04872 4.208,-1.6537 4.08608,-0.13961 5.43894,-0.18091 2.104,-0.47389 4.39874,-0.99497 9.15141,-5.00635 4.40857,-4.75071 3.87765,-2.49727 7.74153,-2.63688 0.97729,-2.1335 -1.75203,-3.28381 0.4621,-0.11011 1.56128,-0.35198 1.4905,7.19686 14.31506,-1.18572 11.30653,1.51017 8.64804,-0.68626 3.54533,0.66463 8.16431,0.10225 15.16257,3.57287 3.7341,0.20253 3.8049,4.34761 -0.10028,4.16868 1.06773,3.21105 4.35941,3.62596 2.59755,1.52786 7.832,2.00371 2.88071,-0.0491 1.95259,-5.2954 -2.38716,-5.73783 -0.2104,-2.54839 2.5071,-2.5071 4.55998,-0.91632 3.05178,-0.0512 3.83439,0.95761 3.33297,1.64977 3.07932,1.82478 1.93293,3.70265 7.82412,6.2825 3.57483,1.61045 3.47258,-0.0491 2.34587,-0.20254 -1.04808,-9.90649 3.48439,-7.43872 -0.93599,-7.16933 -2.64868,-3.29168 -8.49662,-1.1975 -11.19445,-4.8628 -7.20079,-6.65611 -1.45904,-9.29102 2.61918,-8.6382 8.13285,-7.88312 -1.57112,-13.53246 -0.29102,-11.19445 -5.49793,-5.29539 -7.64125,-0.62531 -12.05965,0.61547 -12.00067,4.93359 -7.40135,5.92069 -6.76426,-3.19139 -6.9668,6.40048 -8.90956,13.41054 -7.99323,2.94953 -1.07952,-10.19751 -1.46887,-3.50208 -7.92441,-5.13612 0.67446,-7.60192 -8.02273,-1.75203 -6.64431,-15.51453 -6.07014,-1.13656 -10.48067,4.31811 -4.31025,-0.61153 -2.53659,-2.57002 -7.87329,-0.97531 -7.42889,4.01725 -5.8794,5.56872 -6.11339,5.99935 -11.5779,-0.28316 -10.63995,-5.55692 -15.07211,-3.80489 z"><title
           id="title2409">Santo Domingo</title></path><path
         inkscape:connector-curvature="0"
         style="color-interpolation:auto;fill:#ffdea9;stroke-width:0.99327195;color-rendering:auto;image-rendering:auto;shape-rendering:auto;text-rendering:auto"
         d="m 768.92852,713.04935 -2.07594,0.46783 -5.36466,0.1778 6.59632,-15.55464 -6.45627,-7.4992 -1.59023,-1.84749 -7.01151,-6.68373 8.04451,-13.47969 7.42074,0.58603 1.84649,10.16216 7.49026,0.24832 6.90324,2.2746 9.92279,-2.08687 2.51298,3.19933 0.63569,8.90866 -0.4569,0.10926 1.72829,3.23906 -0.96447,2.10574 -7.63726,2.60138 -3.82509,2.46331 -4.34954,4.68825 -9.02884,4.93755 z"
         id="DistritoNacional"><title
           id="title2380-6">Distrito Nacional</title></path></g></g><g
     id="TT"
     display="none"
     style="display:none"
     transform="translate(0,-371)"><g
       id="TT_Help"
       display="inline"
       style="display:inline"><line
         x1="788.71997"
         y1="672"
         x2="795.69897"
         y2="696.15997"
         id="line5789"
         style="fill:none;stroke:#646666;stroke-width:3" /><polyline
         stroke-miterlimit="10"
         points="646.592,354.674 646.05,351.88     654.417,345.307 657.156,332.548 669.108,320.9   "
         id="polyline5791"
         style="fill:none;stroke:#ffdea9;stroke-width:4;stroke-miterlimit:10" /></g><text
       id="TT_Countries"
       transform="translate(9.7712,479.4104)"
       display="inline"
       font-size="30"
       style="font-size:30px;line-height:0%;font-family:DejaVuSansCondensed-Bold;display:inline;fill:#646666">HAITI</text>
<g
       id="TT_Sea"
       display="inline"
       style="display:inline"><text
         transform="translate(961.99,87.0002)"
         font-size="30"
         id="text5795"
         style="font-size:30px;line-height:0%;font-family:DejaVuSerifCondensed-BoldItalic;fill:#0978ab">ATLANTISCHER OZEAN</text>
<text
         transform="translate(558.8748,1039.2415)"
         font-size="25"
         id="text5797"
         style="font-size:25px;line-height:0%;font-family:DejaVuSerifCondensed-BoldItalic;fill:#0978ab">Karibisches Meer</text>
</g><g
       id="TT_Provinces"
       display="inline"
       style="display:inline"><g
         id="g5802"><text
           transform="matrix(0.75,0,0,1,460.2595,645.8401)"
           font-size="20"
           id="text5800"
           style="font-size:20px;line-height:0%;font-family:DejaVuSansCondensed-Bold;fill:#646666">Azua</text>
</g><g
         id="g5806"><text
           transform="matrix(0.75,0,0,1,277.3899,659.8098)"
           font-size="20"
           id="text5804"
           style="font-size:20px;line-height:0%;font-family:DejaVuSansCondensed-Bold;fill:#646666">Baoruco</text>
</g><g
         id="g5810"><text
           transform="matrix(0.75,0,0,1,304.1399,804.7405)"
           font-size="20"
           id="text5808"
           style="font-size:20px;line-height:0%;font-family:DejaVuSansCondensed-Bold;fill:#646666">Barahona</text>
</g><g
         id="g5814"><text
           transform="matrix(0.75,0,0,1,187.1697,331.8953)"
           font-size="20"
           id="text5812"
           style="font-size:20px;line-height:0%;font-family:DejaVuSansCondensed-Bold;fill:#646666">Dajabón</text>
</g><g
         id="g5822"><text
           transform="matrix(0.75,0,0,1,794.699,712.845)"
           id="text5820"
           style="line-height:0%"><tspan
             x="0"
             y="0"
             font-size="20"
             id="tspan5816"
             style="font-size:20px;font-family:DejaVuSansCondensed-Bold;fill:#646666">Distrito </tspan><tspan
             x="0"
             y="16"
             font-size="20"
             id="tspan5818"
             style="font-size:20px;font-family:DejaVuSansCondensed-Bold;fill:#646666">Nacional</tspan></text>
</g><g
         id="g5826"><text
           transform="matrix(0.75,0,0,1,731.5505,405.51)"
           font-size="20"
           id="text5824"
           style="font-size:20px;line-height:0%;font-family:DejaVuSansCondensed-Bold;fill:#646666">Duarte</text>
</g><g
         id="g5834"><text
           transform="matrix(0.75,0,0,1,158.2849,478.4104)"
           id="text5832"
           style="line-height:0%"><tspan
             x="0"
             y="0"
             font-size="20"
             id="tspan5828"
             style="font-size:20px;font-family:DejaVuSansCondensed-Bold;fill:#646666">  Elías</tspan><tspan
             x="0"
             y="24"
             font-size="20"
             id="tspan5830"
             style="font-size:20px;font-family:DejaVuSansCondensed-Bold;fill:#646666">Piña</tspan></text>
</g><g
         id="g5838"><text
           transform="matrix(0.75,0,0,1,1079.699,546.3303)"
           font-size="20"
           id="text5836"
           style="font-size:20px;line-height:0%;font-family:DejaVuSansCondensed-Bold;fill:#646666">El Seibo</text>
</g><g
         id="g5842"><text
           transform="matrix(0.75,0,0,1,621.1399,263.8801)"
           font-size="20"
           id="text5840"
           style="font-size:20px;line-height:0%;font-family:DejaVuSansCondensed-Bold;fill:#646666">Espaillat</text>
</g><g
         id="g5846"><text
           transform="matrix(0.75,0,0,1,923.1404,484.1902)"
           font-size="20"
           id="text5844"
           style="font-size:20px;line-height:0%;font-family:DejaVuSansCondensed-Bold;fill:#646666">Hato Mayor</text>
</g><g
         id="g5854"><text
           transform="matrix(0.6,0,0,1,620.4963,333.8953)"
           id="text5852"
           style="line-height:0%"><tspan
             x="0"
             y="0"
             font-size="20"
             id="tspan5848"
             style="font-size:20px;font-family:DejaVuSansCondensed-Bold;fill:#646666">Hermanas </tspan><tspan
             x="0"
             y="16"
             font-size="20"
             id="tspan5850"
             style="font-size:20px;font-family:DejaVuSansCondensed-Bold;fill:#646666">Mirabal</tspan></text>
</g><g
         id="g5858"><text
           transform="matrix(0.75,0,0,1,185.1697,726.3499)"
           font-size="20"
           id="text5856"
           style="font-size:20px;line-height:0%;font-family:DejaVuSansCondensed-Bold;fill:#646666">Independencia</text>
</g><g
         id="g5862"><text
           transform="matrix(0.75,0,0,1,1196.4099,620.4348)"
           font-size="20"
           id="text5860"
           style="font-size:20px;line-height:0%;font-family:DejaVuSansCondensed-Bold;fill:#646666">La Altagracia</text>
</g><g
         id="g5870"><text
           transform="matrix(0.75,0,0,1,1092.7986,659.8098)"
           id="text5868"
           style="line-height:0%"><tspan
             x="0"
             y="0"
             font-size="20"
             id="tspan5864"
             style="font-size:20px;font-family:DejaVuSansCondensed-Bold;fill:#646666">   La </tspan><tspan
             x="0"
             y="16"
             font-size="20"
             id="tspan5866"
             style="font-size:20px;font-family:DejaVuSansCondensed-Bold;fill:#646666"> Romana</tspan></text>
</g><g
         id="g5874"><text
           transform="matrix(0.75,0,0,1,490.6594,478.4104)"
           font-size="20"
           id="text5872"
           style="font-size:20px;line-height:0%;font-family:DejaVuSansCondensed-Bold;fill:#646666">La Vega</text>
</g><g
         id="g5884"><text
           transform="matrix(0.75,0,0,1,724.6384,304.1501)"
           id="text5882"
           style="line-height:0%"><tspan
             x="0"
             y="0"
             font-size="20"
             id="tspan5876"
             style="font-size:20px;font-family:DejaVuSansCondensed-Bold;fill:#646666"> María </tspan><tspan
             x="0"
             y="24"
             font-size="20"
             id="tspan5878"
             style="font-size:20px;font-family:DejaVuSansCondensed-Bold;fill:#646666">     Trinidad </tspan><tspan
             x="0"
             y="48"
             font-size="20"
             id="tspan5880"
             style="font-size:20px;font-family:DejaVuSansCondensed-Bold;fill:#646666">       Sánchez</tspan></text>
</g><g
         id="g5892"><text
           transform="matrix(0.75,0,0,1,585.8196,517.1414)"
           id="text5890"
           style="line-height:0%"><tspan
             x="0"
             y="0"
             font-size="20"
             id="tspan5886"
             style="font-size:20px;font-family:DejaVuSansCondensed-Bold;fill:#646666">Monseñor</tspan><tspan
             x="0"
             y="24"
             font-size="20"
             id="tspan5888"
             style="font-size:20px;font-family:DejaVuSansCondensed-Bold;fill:#646666">      Nouel</tspan></text>
</g><g
         id="g5896"><text
           transform="matrix(0.75,0,0,1,234.4846,211.5842)"
           font-size="20"
           id="text5894"
           style="font-size:20px;line-height:0%;font-family:DejaVuSansCondensed-Bold;fill:#646666">Monte Cristi</text>
</g><g
         id="g5900"><text
           transform="matrix(0.75,0,0,1,811.9001,553.5901)"
           font-size="20"
           id="text5898"
           style="font-size:20px;line-height:0%;font-family:DejaVuSansCondensed-Bold;fill:#646666">Monte Plata</text>
</g><g
         id="g5904"><text
           transform="matrix(0.75,0,0,1,210.9597,901.2307)"
           font-size="20"
           id="text5902"
           style="font-size:20px;line-height:0%;font-family:DejaVuSansCondensed-Bold;fill:#646666">Pedernales</text>
</g><g
         id="g5908"><text
           transform="matrix(0.75,0,0,1,612.4963,732.2805)"
           font-size="20"
           id="text5906"
           style="font-size:20px;line-height:0%;font-family:DejaVuSansCondensed-Bold;fill:#646666">Peravia</text>
</g><g
         id="g5912"><text
           transform="matrix(0.75,0,0,1,438.1697,203.5066)"
           font-size="20"
           id="text5910"
           style="font-size:20px;line-height:0%;font-family:DejaVuSansCondensed-Bold;fill:#646666">Puerto Plata</text>
</g><g
         id="g5916"><text
           transform="matrix(0.75,0,0,1,923.1404,386.6404)"
           font-size="20"
           id="text5914"
           style="font-size:20px;line-height:0%;font-family:DejaVuSansCondensed-Bold;fill:#646666">Samaná</text>
</g><g
         id="g5924"><text
           transform="matrix(0.75,0,0,1,675.7903,462.1301)"
           id="text5922"
           style="line-height:0%"><tspan
             x="0"
             y="0"
             font-size="20"
             id="tspan5918"
             style="font-size:20px;font-family:DejaVuSansCondensed-Bold;fill:#646666">Sánchez </tspan><tspan
             x="0"
             y="24"
             font-size="20"
             id="tspan5920"
             style="font-size:20px;font-family:DejaVuSansCondensed-Bold;fill:#646666">         Ramírez</tspan></text>
</g><g
         id="g5932"><text
           transform="matrix(0.75,0,0,1,649.4348,646.0002)"
           id="text5930"
           style="line-height:0%"><tspan
             x="0"
             y="0"
             font-size="20"
             id="tspan5926"
             style="font-size:20px;font-family:DejaVuSansCondensed-Bold;fill:#646666">San </tspan><tspan
             x="0"
             y="24"
             font-size="20"
             id="tspan5928"
             style="font-size:20px;font-family:DejaVuSansCondensed-Bold;fill:#646666">    Cristóbal</tspan></text>
</g><g
         id="g5940"><text
           transform="matrix(0.75,0,0,1,551.1399,623.2102)"
           id="text5938"
           style="line-height:0%"><tspan
             x="0"
             y="0"
             font-size="20"
             id="tspan5934"
             style="font-size:20px;font-family:DejaVuSansCondensed-Bold;fill:#646666">San José </tspan><tspan
             x="0"
             y="24"
             font-size="20"
             id="tspan5936"
             style="font-size:20px;font-family:DejaVuSansCondensed-Bold;fill:#646666">  de Ocoa</tspan></text>
</g><g
         id="g5944"><text
           transform="matrix(0.75,0,0,1,277.3899,546.3308)"
           font-size="20"
           id="text5942"
           style="font-size:20px;line-height:0%;font-family:DejaVuSansCondensed-Bold;fill:#646666">San Juan</text>
</g><g
         id="g5952"><text
           transform="matrix(0.6,0,0,1,928.1404,653.6506)"
           id="text5950"
           style="line-height:0%"><tspan
             x="0"
             y="0"
             font-size="20"
             id="tspan5946"
             style="font-size:20px;font-family:DejaVuSansCondensed-Bold;fill:#646666">San Pedro </tspan><tspan
             x="0"
             y="16"
             font-size="20"
             id="tspan5948"
             style="font-size:20px;font-family:DejaVuSansCondensed-Bold;fill:#646666">    de Macorís</tspan></text>
</g><g
         id="g5956"><text
           transform="matrix(0.75,0,0,1,410.2346,378.1453)"
           font-size="20"
           id="text5954"
           style="font-size:20px;line-height:0%;font-family:DejaVuSansCondensed-Bold;fill:#646666">Santiago</text>
</g><g
         id="g5964"><text
           transform="matrix(0.75,0,0,1,270.8796,307.655)"
           id="text5962"
           style="line-height:0%"><tspan
             x="0"
             y="0"
             font-size="20"
             id="tspan5958"
             style="font-size:20px;font-family:DejaVuSansCondensed-Bold;fill:#646666">Santiago </tspan><tspan
             x="0"
             y="24"
             font-size="20"
             id="tspan5960"
             style="font-size:20px;font-family:DejaVuSansCondensed-Bold;fill:#646666"> Rodríguez</tspan></text>
</g><g
         id="g5972"><text
           transform="matrix(0.75,0,0,1,788.2595,634.0002)"
           id="text5970"
           style="line-height:0%"><tspan
             x="0"
             y="0"
             font-size="20"
             id="tspan5966"
             style="font-size:20px;font-family:DejaVuSansCondensed-Bold;fill:#646666">Santo </tspan><tspan
             x="0"
             y="16"
             font-size="20"
             id="tspan5968"
             style="font-size:20px;font-family:DejaVuSansCondensed-Bold;fill:#646666">      Domingo</tspan></text>
</g><g
         id="g5976"><text
           transform="matrix(0.75,0,0,1,366.7898,270.8801)"
           font-size="20"
           id="text5974"
           style="font-size:20px;line-height:0%;font-family:DejaVuSansCondensed-Bold;fill:#646666">Valverde</text>
</g></g><g
       id="Nmbrs_Provinces"
       display="inline"
       style="display:inline"><g
         id="g5981"><text
           transform="matrix(0.8,0,0,1,460.2595,645.8401)"
           font-size="40"
           id="text5979"
           style="font-size:40px;line-height:0%;font-family:DejaVuSansCondensed-Bold;fill:#646666">23</text>
</g><g
         id="g5985"><text
           transform="matrix(0.8,0,0,1,277.3899,666.8098)"
           font-size="40"
           id="text5983"
           style="font-size:40px;line-height:0%;font-family:DejaVuSansCondensed-Bold;fill:#646666">22</text>
</g><g
         id="g5989"><text
           transform="matrix(0.8,0,0,1,321.9197,812.2405)"
           font-size="40"
           id="text5987"
           style="font-size:40px;line-height:0%;font-family:DejaVuSansCondensed-Bold;fill:#646666">31</text>
</g><g
         id="g5993"><text
           transform="matrix(0.8,0,0,1,206.8547,333.8953)"
           font-size="40"
           id="text5991"
           style="font-size:40px;line-height:0%;font-family:DejaVuSansCondensed-Bold;fill:#646666">8</text>
</g><g
         id="g5997"><text
           transform="matrix(0.8,0,0,1,788.7205,712.845)"
           font-size="40"
           id="text5995"
           style="font-size:40px;line-height:0%;font-family:DejaVuSansCondensed-Bold;fill:#646666">26</text>
</g><g
         id="g6001"><text
           transform="matrix(0.8,0,0,1,720.1287,403.05)"
           font-size="40"
           id="text5999"
           style="font-size:40px;line-height:0%;font-family:DejaVuSansCondensed-Bold;fill:#646666">12</text>
</g><g
         id="g6005"><text
           transform="matrix(0.8,0,0,1,172.5496,471.3103)"
           font-size="40"
           id="text6003"
           style="font-size:40px;line-height:0%;font-family:DejaVuSansCondensed-Bold;fill:#646666">  13</text>
</g><g
         id="g6009"><text
           transform="matrix(0.8,0,0,1,1092.7986,568.9998)"
           font-size="40"
           id="text6007"
           style="font-size:40px;line-height:0%;font-family:DejaVuSansCondensed-Bold;fill:#646666">19</text>
</g><g
         id="g6013"><text
           transform="matrix(0.8,0,0,1,625.1399,271.0603)"
           font-size="40"
           id="text6011"
           style="font-size:40px;line-height:0%;font-family:DejaVuSansCondensed-Bold;fill:#646666">4</text>
</g><g
         id="g6017"><text
           transform="matrix(0.8,0,0,1,951.6384,492.2004)"
           font-size="40"
           id="text6015"
           style="font-size:40px;line-height:0%;font-family:DejaVuSansCondensed-Bold;fill:#646666">18</text>
</g><g
         id="g6021"><text
           transform="matrix(0.8,0,0,1,628.1399,342.26)"
           font-size="40"
           id="text6019"
           style="font-size:40px;line-height:0%;font-family:DejaVuSansCondensed-Bold;fill:#646666">5</text>
</g><g
         id="g6025"><text
           transform="matrix(0.8,0,0,1,205.325,728.3899)"
           font-size="40"
           id="text6023"
           style="font-size:40px;line-height:0%;font-family:DejaVuSansCondensed-Bold;fill:#646666">21</text>
</g><g
         id="g6029"><text
           transform="matrix(0.8,0,0,1,1221.1482,629.3401)"
           font-size="40"
           id="text6027"
           style="font-size:40px;line-height:0%;font-family:DejaVuSansCondensed-Bold;fill:#646666">20</text>
</g><g
         id="g6033"><text
           transform="matrix(0.8,0,0,1,1079.7009,677.6555)"
           font-size="40"
           id="text6031"
           style="font-size:40px;line-height:0%;font-family:DejaVuSansCondensed-Bold;fill:#646666">   29</text>
</g><g
         id="g6037"><text
           transform="matrix(0.8,0,0,1,514.6584,481.9202)"
           font-size="40"
           id="text6035"
           style="font-size:40px;line-height:0%;font-family:DejaVuSansCondensed-Bold;fill:#646666">11</text>
</g><g
         id="g6041"><text
           transform="matrix(0.8,0,0,1,765.4294,331.8953)"
           font-size="40"
           id="text6039"
           style="font-size:40px;line-height:0%;font-family:DejaVuSansCondensed-Bold;fill:#646666"> 6</text>
</g><g
         id="g6045"><text
           transform="matrix(0.8,0,0,1,608.22,526.5203)"
           font-size="40"
           id="text6043"
           style="font-size:40px;line-height:0%;font-family:DejaVuSansCondensed-Bold;fill:#646666">15</text>
</g><g
         id="g6049"><text
           transform="matrix(0.8,0,0,1,234.4846,211.5842)"
           font-size="40"
           id="text6047"
           style="font-size:40px;line-height:0%;font-family:DejaVuSansCondensed-Bold;fill:#646666">1</text>
</g><g
         id="g6053"><text
           transform="matrix(0.8,0,0,1,811.9001,553.5901)"
           font-size="40"
           id="text6051"
           style="font-size:40px;line-height:0%;font-family:DejaVuSansCondensed-Bold;fill:#646666">17</text>
</g><g
         id="g6057"><text
           transform="matrix(0.8,0,0,1,210.9597,901.2307)"
           font-size="40"
           id="text6055"
           style="font-size:40px;line-height:0%;font-family:DejaVuSansCondensed-Bold;fill:#646666">30</text>
</g><g
         id="g6061"><text
           transform="matrix(0.8,0,0,1,612.4963,732.2805)"
           font-size="40"
           id="text6059"
           style="font-size:40px;line-height:0%;font-family:DejaVuSansCondensed-Bold;fill:#646666">32</text>
</g><g
         id="g6065"><text
           transform="matrix(0.8,0,0,1,471.1799,218.8606)"
           font-size="40"
           id="text6063"
           style="font-size:40px;line-height:0%;font-family:DejaVuSansCondensed-Bold;fill:#646666">3</text>
</g><g
         id="g6069"><text
           transform="matrix(0.8,0,0,1,951.6384,394.7205)"
           font-size="40"
           id="text6067"
           style="font-size:40px;line-height:0%;font-family:DejaVuSansCondensed-Bold;fill:#646666">7</text>
</g><g
         id="g6073"><text
           transform="matrix(0.8,0,0,1,713.2732,485.8303)"
           font-size="40"
           id="text6071"
           style="font-size:40px;line-height:0%;font-family:DejaVuSansCondensed-Bold;fill:#646666">16</text>
</g><g
         id="g6077"><text
           transform="matrix(0.8,0,0,1,672.0217,653.6506)"
           font-size="40"
           id="text6075"
           style="font-size:40px;line-height:0%;font-family:DejaVuSansCondensed-Bold;fill:#646666">25</text>
</g><g
         id="g6081"><text
           transform="matrix(0.8,0,0,1,572.1384,629.3401)"
           font-size="40"
           id="text6079"
           style="font-size:40px;line-height:0%;font-family:DejaVuSansCondensed-Bold;fill:#646666">24</text>
</g><g
         id="g6085"><text
           transform="matrix(0.8,0,0,1,308.6848,532.7302)"
           font-size="40"
           id="text6083"
           style="font-size:40px;line-height:0%;font-family:DejaVuSansCondensed-Bold;fill:#646666">14</text>
</g><g
         id="g6089"><text
           transform="matrix(0.8,0,0,1,951.6384,677.6555)"
           font-size="40"
           id="text6087"
           style="font-size:40px;line-height:0%;font-family:DejaVuSansCondensed-Bold;fill:#646666">28</text>
</g><g
         id="g6093"><text
           transform="matrix(0.8,0,0,1,410.2346,378.1453)"
           font-size="40"
           id="text6091"
           style="font-size:40px;line-height:0%;font-family:DejaVuSansCondensed-Bold;fill:#646666">10</text>
</g><g
         id="g6097"><text
           transform="matrix(0.8,0,0,1,294.8787,342.26)"
           font-size="40"
           id="text6095"
           style="font-size:40px;line-height:0%;font-family:DejaVuSansCondensed-Bold;fill:#646666">9</text>
</g><g
         id="g6101"><text
           transform="matrix(0.8,0,0,1,849.7556,660.6506)"
           font-size="40"
           id="text6099"
           style="font-size:40px;line-height:0%;font-family:DejaVuSansCondensed-Bold;fill:#646666">27</text>
</g><g
         id="g6105"><text
           transform="matrix(0.8,0,0,1,391.2698,281.2805)"
           font-size="40"
           id="text6103"
           style="font-size:40px;line-height:0%;font-family:DejaVuSansCondensed-Bold;fill:#646666">2</text>
</g></g></g></svg>